<mxfile host="app.diagrams.net" modified="2021-08-03T04:15:51.491Z" agent="5.0 (Macintosh; Intel Mac OS X 10_15_7) AppleWebKit/537.36 (KHTML, like Gecko) Chrome/92.0.4515.107 Safari/537.36" etag="mmMnwYQjxF4LUDDWlUbY" version="14.9.3" type="github">
  <diagram id="ELWokhWK0_V1DUADCehn" name="Page-1">
    <mxGraphModel dx="818" dy="459" grid="1" gridSize="10" guides="1" tooltips="1" connect="1" arrows="1" fold="1" page="1" pageScale="1" pageWidth="827" pageHeight="1169" math="0" shadow="0">
      <root>
        <mxCell id="0" />
        <mxCell id="1" parent="0" />
        <mxCell id="9insMum_-L4Vv3MbVgxR-24" value="" style="rounded=0;whiteSpace=wrap;html=1;strokeColor=#d79b00;gradientDirection=north;shadow=0;sketch=1;glass=0;strokeWidth=1;fillColor=#ffe6cc;" vertex="1" parent="1">
          <mxGeometry x="20" y="520" width="790" height="470" as="geometry" />
        </mxCell>
        <mxCell id="9insMum_-L4Vv3MbVgxR-17" value="" style="rounded=0;whiteSpace=wrap;html=1;fillColor=#d5e8d4;strokeColor=#82b366;gradientDirection=north;shadow=0;sketch=1;glass=0;" vertex="1" parent="1">
          <mxGeometry x="20" y="50" width="790" height="470" as="geometry" />
        </mxCell>
        <mxCell id="9insMum_-L4Vv3MbVgxR-10" style="edgeStyle=orthogonalEdgeStyle;rounded=0;orthogonalLoop=1;jettySize=auto;html=1;entryX=0.5;entryY=0;entryDx=0;entryDy=0;" edge="1" parent="1" source="9insMum_-L4Vv3MbVgxR-1" target="9insMum_-L4Vv3MbVgxR-8">
          <mxGeometry relative="1" as="geometry" />
        </mxCell>
        <mxCell id="9insMum_-L4Vv3MbVgxR-1" value="getConfigFromEnv" style="rounded=0;whiteSpace=wrap;html=1;" vertex="1" parent="1">
          <mxGeometry x="140" y="70" width="150" height="60" as="geometry" />
        </mxCell>
        <mxCell id="9insMum_-L4Vv3MbVgxR-4" style="edgeStyle=orthogonalEdgeStyle;rounded=0;orthogonalLoop=1;jettySize=auto;html=1;exitX=0.75;exitY=1;exitDx=0;exitDy=0;" edge="1" parent="1" source="9insMum_-L4Vv3MbVgxR-2" target="9insMum_-L4Vv3MbVgxR-3">
          <mxGeometry relative="1" as="geometry" />
        </mxCell>
        <mxCell id="9insMum_-L4Vv3MbVgxR-2" value="configKey and logPath&lt;br&gt;&lt;br&gt;load Env" style="text;html=1;strokeColor=none;fillColor=none;align=center;verticalAlign=middle;whiteSpace=wrap;rounded=0;" vertex="1" parent="1">
          <mxGeometry x="310" y="90" width="140" height="20" as="geometry" />
        </mxCell>
        <mxCell id="9insMum_-L4Vv3MbVgxR-3" value="" style="shape=image;verticalLabelPosition=bottom;labelBackgroundColor=#ffffff;verticalAlign=top;aspect=fixed;imageAspect=0;image=data:image/png,iVBORw0KGgoAAAANSUhEUgAAAwYAAADMCAYAAADJXbSbAAAgAElEQVR4Aex9+VNVyZbu+39KQBlEUSZREQFBQCYRZAaVQUZFnOcBZ8ShnOdyulVWlVXWvVX31r2353gdHR3xOt4PL7oj+t7u/i/yxbdxJevkzn32PhMccP2wI/feOa1cufY568tca+X/+uKLL5RcwgORAZEBkQGRAZEBkQGRAZEBkYHPWwb+lwjA5y0AMv8y/yIDIgMiAyIDIgMiAyIDIgOQAQEGsmMiO0YiAyIDIgMiAyIDIgMiAyIDIgMCDAQhC0IWGRAZEBkQGRAZEBkQGRAZEBmQHQNBx4KORQZEBkQGRAZEBkQGRAZEBkQGxJRI0LGgY5EBkQGRAZEBkQGRAZEBkQGRAciA+BgIQhaELDIgMiAyIDIgMiAyIDIgMiAyIMBAELIgZJEBkQGRAZEBkQGRAZEBkQGRAdkxEHQs6FhkQGRAZEBkQGRAZEBkQGRAZEBMiQQdCzoWGRAZEBkQGRAZEBkQGRAZEBmADIiPgSBkQcgiAyIDIgMiAyIDIgMiAyIDIgMCDAQhC0IWGRAZEBkQGRAZEBkQGRAZEBmQHQNBx4KORQZEBkQGRAZEBkQGRAZEBkQGxJRI0LGgY5EBkQGRAZEBkQGRAZEBkQGRAciA+BgIQhaELDIgMiAyIDIgMiAyIDIgMiAyIMBAELIgZJEBkQGRAZEBkQGRAZEBkQGRAdkxEHQs6FhkQGRAZEBkQGRAZEBkQGRAZEBMiQQdCzoWGRAZEBkQGRAZEBkQGRAZEBmADIiPgSBkQcgiAyIDIgMiAyIDIgMiAyIDIgMCDAQhC0IWGRAZEBkQGRAZEBkQGRAZEBmQHQNBx4KORQZEBkQGRAZEBkQGRAZEBkQGxJRI0LGgY5EBkQGRAZEBkQGRAZEBkQGRAciA+BgIQhaELDIgMiAyIDIgMiAyIDIgMiAyIMBAELIgZJEBkQGRAZEBkQGRAZEBkQGRAdkxEHQs6FhkQGRAZEBkQGRAZEBkQGRAZEBMiQQdx4qOV2Yskw9JfkxFBkQGRAZEBkQGRAZEBuIgAxkrvlBrshdOtxIfgzhMYqzK9WKs31qTqj5MZ6hf7mTKD4HIkMiAyIDIgMiAyIDIgMhAHGSgtjRF/ef3eerryxmquyFt3nkqwCAOk7gYFftoae6sS1W/v5Op/udjgXP9eleAQbS8lHrBd+yyslep9t4BNTh+RG3YVDrvP5QyV8HnSnjl5lVm1nLV2l2uBsZrVdGGHJFf+d/9LGVgRVq6qi5uVK2Vu9Ta7PzPkgdBfh8BDEjHQvp6KkMVrJm/HYS4A4M1ufmqub3X80J+EMYke5n8wvV6jEUbNrnGBOUlHB943tZtja76yTj+4dZU9dcf8rXA/se3uerc8IqwtK9ctVq19QyokcmTat/Rc6pnYEyVlFeGrZOosaekpqrizRWqsaXTNTcr0jMWhKZEjTUZ242F/4dOX1EvP/yNcz1481Eler62VNU6MtLQ3OEpFyVlFVqOIFfJyHOhya2kR8uTlJRlasOmNap+R7Fqai0JuZavSA07/4fOtKh3vxxyrifvx5Vf+WhpjHe9jXmbVeX62kBXYc76sDyIN22RtrdmZZ6jlPbWDquumkG1bVOTWpU5fyANvGwobVU924ZUW+VuVbmhTmWuWJnUPPPicXbGalWSv8UlF8X5ZWHHM9p8VN0c+8q5Tu+6EbasV9+RvC9fV+XQuCm/3LOvDbklehyrs9Z4louk31jLAgT8dDND61oAB1iEXbF8fsBB3IFBz8C4/gOnP3Ke1jQ0JwXjY504KPY0ru7+UdeYDp66rPOpnFd69vp9V/1Y6Yt3/a66VPWXD3mOoCK9eyxdrVsbXkib2rrVvVc/uvjw4rs/qUNnrqrlK8KDiniOobKmQd149M5FC83JUgGs8eRZPNuKlf9X774MmbvNW6oS+s1cvfeV09/9Vz9a+wHI4fJUXd9kLRdPHkpb8VPyI+XllqpCdfv5Xq3ck5JP6eo14XdOrz/sC6m7qTR3UcjLqd5prciRQueVdlT1JeWYcrJy1bHuy9ZxXNn7SNWVtCSUbiieRzovWvu/OHBPbSmqTmj/kcp6uPIbczerw51T1rFALvbtPOE5lmXLlqnpkWe67uW9Dz3LhqMhaN7y1BVqZvSl09/+1lPWvgpyijRNoGc+gWKQcXTUpjqAgHYPoHcFqRdrmfkHBkvkD/RzAgZwhPnn56s0ej0/4q/QYzX1yTe/18ocwAB/hkI+duj0vAj56py1VoBCoACpAIPEKV3x4H9776B6/Juf1Yvv/6zOXruXcLnxAwYwayL5OX/jUcLpifWHXupHL9/Zq9LV46/HQhR7AgSU+gGD1p5y9eLDhHr780F17kb3opAXKHLXh+cUOS9AQO+rNzYk3biwUnxp8L5WRkHr1aHHWmHEM5THdTkbE0I7FGmTh+ifeIYUyvLqrLUJ6T+e3/36tZvUteEnIbTzceAeuyHh+hzZccTh95W9D1XD5p1hy4ZrJ0he0ZpiTSt2icw6KSmp6nj3FV0GO0hmmWR4zkxfpv7hSbbWv0baE+9zEHdgsGZtniqtqAq59h87r/9Eaz5DYIDVRJMn/LloY0lSCiR9FKcGl2uh/Pl2pkpJ8f+ThdJPitPpK18qmF5lZGap1u5+R7lD3tP3f1BYeaV+EpW2dOzWtFy790o1tXa75iMtbXnC6UjU+JK93XjxPz0jU63KmZ+t3nDAALJy69l7LVMV1XUiO0vYZnxH+2YNCm487lcNLZvUpvLckCs1NcVXBlakp6mV2fOz4heP34Tc7AKtNA01HVQFOevDXrAfj0e/8WzjzO4ZPQYorVi9R/sZyzPV8I7DOg/38ewXbWWuyFJT/Xd1HzBfwjvkAQgc6jiv83bVjsS9/3iP50TPVU3v4PZJVV5U7ZKHrPRs33GAB1DK402f2R4UfQIu9RYQ0l7Vp/PD7XSY7S7Ec335nMXGv7/PVbmrwltrxEpj3IGBjSA4DJKS+DkCg7V5BQn/CGx8j9c72LZhKwv+BaVF/n+A6BfmUTTnptnH1M3Hc3nlWxPOm4Hxw7o/KKnx4ou04w8QwaPFyP9wwACmgyTbZ+Zh90LkLJicJYpP/ePbNDAASEhUP8nWbsX6Wq04bS9rX3TjLlu3VdM/3uI2cUlfnqGuDz91yky2n437+KCMkmI60ereHYfzLZm6jDUfi3v/8ZQn0EpjOdJ1MalppXEDiBHN8O+g90ixmzA98tzJvzz4UMFngucn4/30gRV6gXayJ7ELmUkPDGCGMLT/mDp5+ba6/uC1unT7mTp85qoKquBBKR89eEpdmHmkbj39Rs08fqfwZ943MhnIgbGhuV2duHjLsSeeefwbhdXvqtrtakcEPgbRAIOhiePq+IUZx9wmc2W2auncrY6en3ZWKsGDieMXlFe7/WOHnLqoX7jee4sU5lAogwumP7aPoXDNMvXfH2cdjv/xif9qALUBHwJSnkzHzHUbihV2UXD5rQBj/uG4DKBx88nXzjxgDnYPTQT2UYgFmG5rbFHHp2bU9MO3Tv8wY6ndvlPBOZV4V1233co74kUsaazjj/b7iUX+zPFGw3+swhN/zRTybfbh9Rzt/HkBAzg9f/nie0e2YdZUVhHe16Fg3QYFv6tjF2448nP5znPHCX9HW4/nbln/6EE99nC7EXDkJ95sKrV/v158ma/3MMMZmWxQ5290qy9fDqlbzwfV2etdatdQtUpL819kQP29++vU6audaubJgLpyb7c6fG6n8lPQhybq1ImL7WrscKPKyFzulD821abuvhp22pg4vkPlrA3vF0A8QiQhMhnaWlsUSPbKKguc/kGDefWNbgvUBvqvrl+vTlxqVzefDTr8gxlSTcMGVVqRr9utrFkXuD0aU5AUkWNIsSop2BJxH81buhV2GvbUj6u01DRVsX6b6qvfp+B0eqTrkupr2Odp042yqIsrXPSaupJmz3IwWyH6sfthGzPowK4CaDHzOf1Y4S4t3Kp21Y2qk73XHJ+F/ob9KpyzKsAA9Q8zHLN9PN/4pJyOtxy35qNM+vJM1b51jwK4ObVrWp3sva5Gm4/5muJw+iPlv0lr7aYdeixBTYBgxkVzaKY7tnR6jtfsG2ZeA40Tjsyc3XNTTbafU1UbG5xdF2oXINCsN9Yy5+gMHlJ+akqaw0Oam5ri8P/f2AWBnGG+T/Rc+8T/o847atOWcv7b8rFrRPQH8TPZWZ2qgcHXVxIbLCWpgcH2nV3q/uuPWsEkRZNS2PbCdMnGdLyD4vvk6zk7d6pH6e3n34YNfQhAgT9/Kk8p7OUPnLio3/s5H3sp8F504z1XTCZPXtJ9EQ1IEZ2lfKv7T2Zo4pguDyXDq59Ld5475TCe3AL7n0tT5ZwwvpkKLox8VRV89KIh3Hu/+QfQK97sjjYAfkNxp4uDlK49w/o95SO1mRJBoQVvOM9xD5kASKP3Hbv2RjW+cGNHXrTjp3b96of7fmKRv3jwn5sfEZ8pvX7/dSB+xzJ/fPzET6QApETHyUu3w9IBZf3uVz/o8lSPUoAFmykdFi10mfP2yB2oB8dolHv2/tewv4Oc/vm8b2zepJ58M66ValKuKb37akitL/Y2DatvLlaPw9SfutWrsnPsv0nTj/qdfuEbMHmq2UoDogOVbnFHyQNggOJN1+GzO3X9jt0V+j3lIzVNibj5EY2XUgCcIPMAQPLmdwd131QffgoAOfTc1hu50h6k/73bD2plMIiJiNkmAACUrwv9X6qBxgO6LVLIkF4cuK9sSnttyZwZiJfiBtMlrPbOtnNPpaWGrqJiF4D6CgcuTLrpmdMPUx9qi6dTA/dUzkq7IzmcWVH2eM9Vz/mG8ozoPnCCpX55CgUYPOJ98vsDbWc8zXI4/ZHyH3OCVXW6oBRTv3DWpveU2nw0OqsHdB2qSymiE/Fxet0DnBJ4orqUDjUd0u03lra52iPHeZhz8fa72U5COECGOjCfO993W/dDfVMKsJayzL7AwfnP+6d7RKWidnaU+wOl1Vlzi7R/9yix0aySFhhgpe3Ru9/pP8i7Lz+oM1fvqqmbT9TT97/q9/hzJUbzdHP5VvXs27lyiI5z6vIddeXLFyHK/pW7L61/zgghykHB9QdvFCINQRng/eOPOZHAwPnj//ZXdfvZeyeSz7HzN0L4Apt5U7mAskyKBcbL+UL3ufmFWum9eOuptQzKDrakaZQ6NervdEztY5cDcwY6nnz9i7KFdKWythS7Co/e/azHcefFd87ODRS20Hl57dr5OXruuq5HfPBLTedjyM/z7/6o25l+6D3/iQAGsYwf/Iz1+yHFGHzDdxSJ/MWD//U72pzdMdjy0/X8E0gLAgxinT8aP49KBJmmKFugJdwqPcIV80WNCzOPnZ3LieNT6suXszsO4K3t9ytnTa7jf4N8fDs4w8H8RrCTSTJ9+mroH59ZdiGe89etUs+/36+V1/tvRtTJyx0KCjsUW1JqoSTbQnfm5q8Mqf/w3ag6O92lLt3ZpV59PKDrH7/oVggwXgIG6Of1T5POTgEU/ONTbSHtwmcAYUg5j45eaNXtE51+qel8XLt9o9MndijoIiU/CDAo3pyr3vx2UtNx8+mAOni6RZ260hEyftCVKGCA1XQoLpcHH4Twh/PK6x7KEplq3Bh94bRzsOO86q7ZqwYbD+hIMGgfSqfZDhROUpqgYJr5eMaKLJXZWdnrKsMVQOxawJna1o7tHacfzsMw+UFkI4AlrNZzZRV0mG2szFilaYvWf6E4r0zzEOPEfOzdPqkABsgECe8RAtXsn9MfDf9JqSX++qUASCYN8Ok4s/umvhCBidrprO53lTfrc8UZ9SA/u+vG1L6dJ0PGjzwzHCl3nEc9ahvO4MQPyHU4EyK0iahVaH9m9IUCmIFfAna9rg3NOWHbnJY5/w+2z/VPdCDlO3KlhcFCuP/Li9kgMP/21ntBhfcR7X3SAgMe7hN/nnA8pEHiD/neq7mVuLLKGp1HZXjcc6zu0nukUJoevPlJ/7HaVt0BIuiPF3/mvD76ozykfsAAEUxgOmC7bH2jL1JM0P656Qch44cjLx+/rQ0osqgLJbqwyG1OxMPK7trr/mGm8U50zTkej7RF5g0PUwfiE0woTABDfdhSPn8AQzxuPcyjsNtDbWNniLfBV/OpjF9qAgOYq1Ed7Dhw2jH/fCchEcAglvGDF7F+P7HIXzz4z+eT7u9+NQs0gwCDWOePxo9ISAAZuLDzRTIBmSS6bOnefUd1Wexc8DLZq3MU/z4BBHg+7k9cvKnrd/W5HRPxm0i0wKzRrL/QzzxuP5RxrvznF2are69HtNKLMwFMekPqX2xTcNylMjhL4BGLElSyxb1rzIHBhZs9IfUBOnh9c9eAr8b7AQLKN4EB0crTh78ZdcYcBBjAXIraBqDh4AXjJZCRSGBAK95Q+mDa43WRQy0fa152oVYCoViZyjMcV/EeF1Z2eV3cY/UfyhjyoYib+TDtOd93x8nHrgH8BcwyWImnPpAiZKVtZdush+e87HUhdWHKw8tx/4vJNrd/wuaCCl3frMvb8bqHYkvjAwgwIz7hkDAaG8KHmu3Ewv9ZpTZ4NCrQcajjgosGkyas6hPNoN/M588YP+SOypshZXlbKJOVHrqCzh3nASTyc4qc1f/TzBndjwYeltU0pYMTO9FmU/y5/ABI8LHRPd+RCwdQqDzSjzOzZxvAAZm/j/d90gID/cf89S8Kf6TmwLli223544RNPmzThw+csNaHsk9/rJ173CG2KEY5Vq0RTcfsPxJTIurHlmKcZtt4pvGjjmmjj/yBsTmHWgAPsw1uTgTTBDMfPhdoGyuf2D0w8+mZA4Oh1rk/Z8r3SncP7XfCS/IxYz68ypvvofyhLhQzHJJm5nNzi/HDZ0LyYfcNMxq6jrAdBJhW0XuecuCBvuDHgf6xWm7zg+DznwhgEMv4QT/Jz+Movx+qDx5EKn/x4L8533iOBBjEOn98/FyGcY+dpPXFoc5sJr0A8ygLAG8zU+Phjm2K/baGZqc+2sBYePtYJMF3gTyYE87neSCcjnD3UH6htCJEZ2aWe6dxz0iNVnzHj7iVBFLsX/wwobJWuut392/V9Tv3uP0rqD5oAJAwae0fm3MoxonEPL+kLE/BDIquo+fndhD6Rmv0e8pHyoEPb4vfRwIM4EsB2rHbYYtkdODkDj3+ROwYQFEhxccvxQFofJy438rMJM7tuW01d7k0+MDpAzbzZn08w54cfdvyYfNNdHVU2VefoVxyO3MqD58CKOs2MEF0bN3QoNuHgg67dMqjlFbAYSpF7yjdXtah61dtrHflUzmvlIMarJLbylH/2Mkw82PlP4AN7N5xVRTV6LHALIre8zQI4NpdN6rbKczZ4KKZjwGr9TRf8OngebgHMKRVe4SjNfMhk1TflkIuzDr8GUCC6tkcx1GWIl7ZnLG5/HiZCdGOHEK38r7D3f944zMHBg8/mRFdu//KyjSskuOPEdf+o+esZcIxmG/F2+zwyYwFCoKtHYAJ6t9vx4DK2VKv9kkxgSmBrX8otdSejf6NJWU6H6v1vA04pJKZVTgzItSJBhhgR4doQ/rs21mTHIAQfsAdzC3gzIvLBA2k+MBUitNO9wCLu/buc666Jrs5AZWNxvkVpkugHSY01A5P+fwnAhjEOv5Yv59Y5Y/zKhr+8/p0HwkwiHX+aPxcjuk+CDCgHUmYPhL9PAWwoPbGj7hXHFEWPjQog10/fCtUf2fXHl138mRyRgh58WHWjAimOkQ3T6Hs9wxWOde2RreS8Oy78PWxyg/FGde+Y+744wQMXv4wYe0fyjzVB0jhtJn30Tgfm23gORJgANMr0AczJFtb7bu2aPoTAQz4ijcpSF6pzUcAJ/tSeZupC8ZEZhrHuq9Yx4iVXrSByEFQ8jkfyH4cZwLYdiyoLJxuYbZCfRFNSAFMvJyCOf02+3W0T4q5TXGF6RL1BSWT6AmaciWaQqyadal/G/84/dHyn/rLXTUXttbmpE3l/NKJtllnbJjy2IAWr8/NwLxW9ulMBRwex+vinpvp0Dzw1C/KFs49oPIw6TLbxzMBVxswAPCk+l5mQuQfYwN2tv7w7rMHBlCI8aeI0JY2JsFmnf5Y4ZxrK4OVNByMhD/e41M31clLt/SFP2yqb1Os/frnK35+wABRjBD1x3Z5nWFAigm3ceZjrGtqDUs/ysIvwlEsvvuTc44A1YciS2OHck3vbWk0wICbUWBnB9GHAArQJ/wOyGEckaaIDphZ8f79+M/L+t1Ho5iSHTh4aGufz38igEGs4/er7/f9xEP+iG/R8J/q8jQSYBDr/NH4H779rQKYxcXNd7ALxWkz74n/2DFAFC3z4uF8vX6/eJhX7sCPqGr03djMCE1aFuIZCjkUW/gERNO/X/2ColVaMYZzsdkHAQM4H5t5eEZkH9CHKxmBwYN3n8yOnrp3g0E/zK+I/kQAg6byuRVvhN2EaYTXZSrtoI87hsLe3pwDviOB6EFmPp67t+3VyhV3HoZJEyldKGOra76DozKcmOFsyv0DoFzbzl8YZo6tNjMP1CEabKFQYV6EfPhZRBOzH+Yps/WfWZ1bef+2U33jwX/iIV99jySaENWnFDtHGNPZPbd85wznCqAszKhs84MTipGPC2cqUB+UcjMdyAt2IAAGqA4iG1FZW0r8R3nsLtgu8qGxOTBz+bGdprwyPVvTgshENhps7wQYxAgMEGkGq730BxouTTQwiDUqkU1AggADhHmlcSOaCrVDioWfGRHKc2AQ1MeAzJSwKwGHTbQzfOC4poVCvhJttlVVUqy8gCGNJUgajWIaq2IZhK5wZWIdv199AQa9Wh5twI6AAQfm8E3CoXyQW+yC8VV8cy6J/yTj4VIvYAATP9rZww4I+sBuHwU/gLmj2W+yPPsp9n50+tUXYJBYYMBXvNesdPtw+M0fVkGhVMFPwVYWq6ikpMGh01aGh8iEckdlyPYbK8Y20EHlvFIoibTaDhpglmSWxSo88rDTYObhmduY28AJ+QfA3MRW3+8dzJPQP5yAbWV5/7ZTfePBf+qXr77bwoJSuXAp9xnxMs3h9cn52WamhXJcfnZWhC4qIp/MdLCjRO3Cd4JOwYb/ig3wUVniP8louNQ2/37yA58FahP8pX790s/ex4D+WL0Uw3CKDZRRMiXAH/Kd59855kawy6eLO3cuVWAAxYUUErJTBm+efDMbwtXPjAhCurtpLirRxTG3ra9NkMm+G1GlKB/OuxQeFTSRqQyceG3O437zT+0GSaMCBp9i1ePsClsfbT39mrc2xdJWJ5J3sY7fr3647wd02hRjTn8QYErlo+E/1eVpRDsGMc6f1/hhukPflBnUgNNK/IeTPP3meKWVNd42yDwIAs7PwO4k9Y/2eJ/JdO+n2PvR6ld/yQODt7M7Bnde2FfEd3aVJXTHACuqUFygfPvNlS2fTHegoNny+Y4EQnLayvDIRBR1CGYdpFB52d7b2jLf8cPHbIo10W8z00FbPJyqCSyWp67QUXNgDmX27feMFXKKOuRVn/dvO9WX6I+F/0QnX30Pd24Dlbel8EGgeQtyyjMdPOfl1MxPLYYPhNknOc4fN8zUeNjV5i1drnpoh/Mf/Gup6Al72fwriP9e8sMPX7P56JjjoWeKSvSvX7n9LqlMPNKkdT6G0yT+AEmhNQfLQ3Kadrbc/h5hAs26ePZTbOiP3at/bufrZ0q0UDsGGCcOhQMfnd2BgnWK0907GN6MCPXLN6TocKVBzzGwAQO0hRCcZPtOys3hs27HIpT14z/KBL2iUUxJMcQ5GDbnUTi10xgSCQy85M9v7LF8P2ibxs9XzHmfft8PLxsN/3l9uo8EGBD90c4f1TfHj4hgtGsAXwOvXQPiP0yGiP5oUoRtJTkDEMHv2ez3/EeVVxi57XI0NERThxT7K3ejO2kcTscwlYETrq1/nH9ApjSTJ90rvovdlIjof/njhOuMBPBj+EC9Hn8iTIloxRQHOtn4H+4dN/PwMpPoC2CDD/8ACi0J5RR9kt/B9Mgzz8PFCnPWOyvKXrbdaIc795rAgNPvFWqU+wAgBCbnB/onJdhsm8rBhwMrzbjMMwzgmKvrb7P7mCAUKJUxT/Xl9MfCf6LVtvpOeUFTmHERvV4+D7wtmnf4JfD3uIfiTiv/aJObmSGfm6mZ88fn3Qs08fnz2s0yaTKfyczIFrEoY3lmiM+LzUfHbA/P/ByD395yR+Gy1Yn23bwDAygUQYjFKbf4A4RJh618Y0un/sM0V864CU3nbnfEIbTHV3xtOwZkSoLdBlv/3P43mYHB3v1zYROdk1KnZj4pFn/yPDmZjzct9Qv1lw95DjgIevIxAQMo97wt3COCEik6SAEWzDJ4JsdLr/mHHGG3ARfi5tvaoHfRKKbwSSE6uRkW2kSUIopnjzJBgAGiHsGPotTnpFyiOdbxx/L9gAYvxZjoS3ZgEOv8hRs/j0jlFbaUokrFw9wHv0GQM+zA4TAz3J+ftpto0PyYaVnOMlWdl+Jcm1aHOnKaZePx/OVXQ47iClt5W3uw8UfITVw4N8Asg1OSofh71a/fUawVY0QYMuuTYr1YfQxw2jEBH5wSzceHKEUYF+UHAQaR/P7wFdOgB1Fx+riZB5xgeR7d046Enw0+4uBD+YODKRRoWkm3nX1AbfMTj72cXKGckqJqxqGHuQzl2ZxtcYourQjDVMXso2jt3BkMtlClMGmhiDYYj2mDzut78Q+ADTTCgRXt0diRxpP/aI+cZM3Vd96n3z0/7Kw43+7My9ugeQafzehR2D2i+cHOAq+Hez5+k/9OGNT+u7q+zUyO71RhZ8tsP8gzAQPQZ5os8d0CnJFh89Gx9dFaM3fY7JPT6VHRZWvX9m5egAGUc1Ky9gWMIIRDe6iOGaceAzl3fTYcIMo0NIdOHo+fbwvVifrc+c8GDLhzshn1BivIMDEh+pIZGHBzIhwQh/CGoFunIYQAACAASURBVNtm128TELz7+0crHWDw1x/yVWVx6I+QrQ53KuZAEOZEoIH4htTLvprPP0LPmv3w+fdzoI4GGPCVWoAPmJ7h1OQ9wwcc0zQ+Bj9gAGdr4jvq4YwBczzmc6zj5/Uj/X5ASzjFGPnJDgxinb9w43d2Db6Z9TXATpzt9G0CD4goVFFd55rvoYnjzqns2NHoHRx35XN54KGHSe5au+3Rfng9uk9N+UL9eTRd/dO+2etRR+gJsVQununZ611accUpwGbbF2Z6dD6iE5n5vL7tnANev67JfU7LYgcGOCCNFH+Ap0Nndyqcurx7uFpRxCLK9wMGkf7+cPv1IAdRmXPHzYRwSJWZj2fakfCzwacdAsS0J4daOA/bFDrqBweokeJoxv9HGShq5z6dZgtfA1Oxh4Mt1beFSuU29zbHU65Y2laMa1moVVtEHQ4MbI7FADJEH+2k0NiRxpP/3EnWXH3nffrd4ywKojlcFClqh2z0UQdzgMhQMJmCDBBooDyqQykfvy1ULEzQiBYb8OJmTzbHZgAbhBhFuFQvUy9OP/xN0A/O8sDhdNz53XaGB43DTG8dXqGtN04MJPY3fF6AQUl5pT6tFs50sJsd3Hck5ELkHs6IxpYOrUBi637s8BmFeN+t3X2KnFvxJ4lTUc1zBngoU9iyY0eB/rw3b6lyIoTQHyxSGzCAAkhlYP4C5RPtws4XtvmUh9QPGCAUpzle/tzS4VZ8wykm4FMkihmZE3Ga/ZQRPhf72SFnf76fpZanhV9x5Ds2AFDgHcJ78nnjtJgRidB3U1u35jHmH1FZtjW2KIA+tEOnHyPPK7ITjSEaYIC6Jy7e0jRwenHPD/HyAwYw2eL1oQzaTrMleuMx/li+H/QfT/mLhv8A9PwbwT35pcCkyMzDeDn/cB/L/PmNn5+DcvyC28GQ72giMhF2yiCniNCFXTw6VRugM9wJyhgHnJ6pPOQIOwf8wEdz3OYzdgoIFCBtWe8P7s02In1u3DkXDvSrjwfU6KEGVV2/XnX1V6qLt3v16cfIKyxy28vWsR0BlBk73Ki2t5aols5Spz4pxQjnmZ6R6pr7hQYGiHQ0sK825KIQrghbauZhvCaPcVI0jdNMj11o03l+wCDS3x9+RgAUOqzQel22UJ7cTAgHbZnj4jsSXooV1cFJyaTEkULoZR5DdfjhV/CRwGp1aeFWBfMdjIMfnGUzFeF26OgbCvHGvFLH4RhACau8eA8HVjgyU7+UYoWbbNxRDjsYiPkPGmACRPbzUBDNg7PQBt+RQH0ckIVVcFy76kb1acjYrUCkKOqX0njynzvJ2nhFffIUirkpL+SMjZV0Mw+HxfH6uOemR+ABvwCGSBZsh9/x8efnuPkD0y9qzwb84CNyceC+Uwb0wscA5koIbYuxcTMmL/8AOMuTORT1RSl8LOje7zwF4ktLVar6rx/yHWDwf9+uUdmZ4XUwqhdtOi/AAMRxZ1+uJNE9VsXMQfDTS6kcT6EU8rj4vD5X3KgOKZN4psg8uLcBA+wK0CFnVJ+nfFXcDxjwerZ7mx2yn2ISCTDg4UPRP5SMSPweUlK+UDAj+p+PBc51fSK8EzIip9z9au5kanPMV+++dBSkp59WXRES0nY6Mz+YzGyDnm2853KA+2gUU2oDJmOIbkWyc//1RwV+AqASDf7AYFyXRR04f9sObaM+KY11/LF8P/GUv2j4Tz4mxGO/1Ct8aLTz5zd+2PeTE//sroH7kC38rvjRjWhdNN/hUr7DiXkNV9bMm6xK08Dg48AKlbIsuH+O2VYkz/xgMFOxpeeuvkrPsfDTf6k8TwEYqmrtfhYLDQzIx4LTG+4evLLxtn98m3OWwdufDzpA4PE342pwX60DkKg9f2AQ2e8P7N5JcfFLbTHYD35yXHbMhAwzF4yR70hAUbaNm97xyESgBQqhTRmm8khhWgOFLxztaMc0M6E2DnbMhgqFAk+x6m1tAXBQHTPFCrGtDr1D/zZQRe3g0DYqa0vBWx6pieohjSf/eYhP2+4L7xf3HPTZ6La9QwQssx08wykd0YlIwYZJE3w7uKmQbQ5CzNQs8oe2KXQq6CnIWe/qv6WiOyz/UQ9nLdjopncAjdghmOq/68gRQphitwfviQ9d1eHbQFsAAf/8fJXWv87sTexuAfqcN2AAMxKsws88fqed9/ifJv7AiaE8xTkEsLElxQx1EK4PNra0C8DL0z2i72CVmf68qS8oozBf4bsKOKWX6vE0Z02uc+4BVvWovhPh6Nh55/RcemfzY4C5COX7pQjfyfvFvZ9iUlPfpNv3op/a5OZEoCUSMyJqY9f2NO1r8N8f89W7SxmqusR75XFz+VbXzgoOfYI/AIUwxa4F8cYGjtA3dhrI6ZTKIp1++FbBXIToC5dyxXTrNvcpq+HqUh5W+AF46BmmHESPHzCATwKFzoUSuc/jQCtqm6exjj/a7yee8hcN/7EqTvwNkmLhgfPNvI90/vzGj/Ynjl/QNB7yUNYBXHFIIx3yR2PB+RgIBGDS6fWM3zuqa+6uetWh9087l2tgMLHVvbpO5RKR4iAuOtiLFFmkN58NKpjL+PXZ2lPumM6QYoy6rz4eUFM3exQckL3q+wGDrbVFesW9d6/blIm3yw8421LlXgHnZen++fezB7TxMYe7P3SmxXMsaDMza7nKXjVnV9wSQVSiSH9/4FdAiotfCtMOGjOliFOPel6hNnFgFbVrRvShNijlZh2oE9TnAavuMBmh1XnqDyYgMO8pW+c951DkUB5mHgAxJjjAjgNWtIlGr7Rh8051+dPpztQ/dhnQP8yFvOrRe5yeTL4MVB+7DNhlwaFjVM5M48l/bnZjU6DNvrnjLtHsl/odNoZQp9z8KJx/COjxGz/KcOdtL4BYV9Ki/Sv4GAAct1giIZm88Hr2o5/qYUF2X2ea+t/P5kDBPz3NVpnpid0tQP/zBgxosNGmWGGF4ybAAEBG0HZwyBm26mGGAjAQZKXWbBtKBUIKwiTKzPucnvc0pan/eJ+rket//Ziv7hyZ+7Oy8WJNbr7aWrtdlQV0urW1gXfY4UA7uLiC7lU+0e/5ajCU7yD9Qf5gnx6krFkm1vFH+/2YdCyV52jmL5axw9wRoBRXJLt16BMyQ6ZEcEqPhI4VqcvU347N+hb83Vi6ypmHPxUbfTlrM1VFdaFzcQXXVtb2LjNrhdpUnuuAgZSUxP8x2mhIpnd9ozUa2AA8BaEtlt+fIO0nYxk4dsIfAau04ZRpoh2AgpRAHLKF9zigDI7PWKnOycoNxGtqDylCfMIuHdGGEGmJ5wW5z1mZ69CPE5SjOSwtSB9eZWjnBeZTpi+GV51Ev+fA1YzolIi+MeeQH4BUyEesfQShf0PeMgUQQFYaSP/24UpVuGZ+fvsWDTCIdTKkfnzMB2Dr9n9e52iB/fVu7B/KYpsbHDxFp0pjFdfmXLrYxvQ50bvY5o/vuMBpOZK5qi+Y8y+4viPxW9CR0CZlo/tNzlmbpWaeDmhgUFbpvXosPI6Mxwj9ScDAdnDV58JPABBuRuTnCzJffIGfBvkXIGLVfPUbr34ALrFrBBk7F+YE6NrSuTDx8C2AhcbaVfMDCjBWAQYRxMOPl3As9nbgfDzSnqYQS3epAwOYcMCshK7ph2+cMyHIrAOmZdiVWuxzulTpXwrzRxHQYE6Jg+kimaujNanajKgy19v0L5I2pWxkymYs/ILJFMyi6Lr5dMAJ8UpmSYhQlJYm8xoLj3ldfvAZDhHjeUv5HidII64/XdyEyctJOpH82FHeqWkhmsjEi4Cb7WC3RNIUSdtB6A/nY1JVkqL+3zdr1ZdH01Vp0fx/3wIMBBjE9OO3MmP+UGwkH2a8yiKKFoEAM0UI0uo6f1vTeNEi7USukC32+YPpEcldkJPKTRl50T3rX/CmV8CryZvF8Pz6p0m9M0BggNIn78dVZY076spiGFey0ogDyUjxRBSaZKUz3nQhYhONm6eIfITwqvHuz689hGnldPB7OF53VPXNO01+NPP8cPQDaNmcpnl93M+HL4HZJz0LMBBgkNQfGAnqQqU4d+Hc9IOQCw7U/WOHksLXYaH4slj6Xezzh+hX2PXAZQvr6zcPhVnLVPHqZWrNEgfwfnxYrPlnp7vUhZs9IRcOhOsb3RbijLxYx5dsdDdv6VITracVFDuErUw2+hJFD04Exrhp7DgLYmdFj8I5BonqM1y7AGhED6VwdEfI1KAnBYdrP9F5NvoRlcihP4zjeKLpCtq+AAMBBgvy4QcVUCkX+Sq58Ex4JjIgMiAyIDIgMiAyEI0MCDAQYCDAQGRAZEBkQGRAZEBkQGRAZEBkQJyPo0FTUkdQuMiAyIDIgMiAyIDIgMiAyMBSkwHZMRB0KCsEIgMiAyIDIgMiAyIDIgMiAyIDsmOw1JCejEdWL0QGRAZEBkQGRAZEBkQGRAaikQHZMRB0KCsEIgMiAyIDIgMiAyIDIgMiAyIDsmMQDZqSOoLCRQZEBkQGRAZEBkQGRAZEBpaaDMiOgaBDWSEQGRAZEBkQGRAZEBkQGRAZEBmQHYOlhvRkPLJ6ITIgMiAyIDIgMiAyIDIgMhCNDMiOgaBDWSEQGRAZEBkQGRAZEBkQGRAZEBmQHYNo0JTUERQuMiAyIDIgMiAyIDIgMiAysNRkQHYMBB3KCoHIgMiAyIDIgMiAyIDIgMiAyIDsGCw1pCfjkdULkQGRAZEBkQGRAZEBkQGRgWhkQHYMBB3KCoHIgMiAyIDIgMiAyIDIgMiAyIDsGESDpqSOoHCRAZEBkQGRAZEBkQGRAZGBpSYDsmMg6FBWCEQGRAZEBkQGRAZEBkQGRAZEBmTHYKkhvfkez8qMZfJDIj8kIgMiAyIDIgMiA0tEBjJWfKHWZMt/+3zrU8nSn+wYLJEPeb4FqrUmVX2YzlC/3MmUPwORIZEBkQGRAZEBkYElIgO1pSnqP7/PU19fzlDdDWkyr0tkXoPqiQIMPrMJDyoYXuU661LV7+9kqv/5WOBcv94VYODFK3kvtqciA8khA5lZy1Vrd7kaGK9VRRtyRNGR/z2RgTAyAGBA//FIX09lqII1soPwufyexx0YrMnNV83tvZ4X8pcCc/ML1+sxFm3Y5BrThk2lOj8cP5C3dVujq34y8mi4NVX99Yd8/YPxH9/mqnPDK8LSvnLVatXWM6BGJk+qfUfPqZ6BMVVSXhm2TqLGnpKaqoo3V6jGlk7X3KxIz1gQmsyxLpXvZ0tVrYvHkPWmtm61eUuVWr4ivNyYfJnvZ6K/obkjKeRivsefjP2lpCxTGzatUfU7ilVTa0nItXxFath5OnSmRb375ZBzPXk/rvzKJ8v4N+ZtVpXrawNdhTnrw/JgIca0KjNH056TlZt09PnxpHxdlaafz8OWomqVm12gli1LbmWZ6N+UXx4R7wECfrqZof/rAQ6wCLhieXKP128+JT/YQk3cgUHPwLh6+eFvPK+ahuaIBDRZJxJKDo2zu3/UNaaDpy7rfCrnlZ69ft9VP9nG3VWXqv7yIc/5oUB691i6Wrc2/I8ElMB7r3508eHFd39Sh85cnVflsLKmQd149M5FC81JsgDWpfL9XL33lSevwfPn3/1Rnbh4U+UVFiVc9gf3HVEnL99Wxy7cCNwX0X//1Y+B6yTbN7uU6NlSVahuP9+rlXtS8ildvSb8zuX1h30hdTeVLg4l9VTvtLo59lWgq6OqL+lktXlLt6a9Yv22pKMv3DeyPHWFmhl9qem3zcO14SeqrXK3SlmWkvCxddcMqu5te1XVxvpAfXH697eeClTH5EdHbaoDCGj3AP/7Zhl5DqZsLyY+zT8wqG9aEoL1OQEDOCL98/NVevXg/Ij/am9JWYV68s3vtXIIMMCfoRyOHTo9L7KwOmetFaAQKEC6aIDBIvl+SLHmPLbdP3z7W4XdtUT+aJ6/8ciRw6ff/CFwP0S/AIOF/9PLXpWuHn89FqLYEyCg1A8YtPaUqxcfJtTbnw+qcze6A8tBIuXSr22sRl8ffhZWMeXKavXGhqQb10DjhKZ/bfbishYoWlOsaed8tt0PNR1KKO/XrMzTtAw0HgjUF6e/t3Y4UB2bTGamL1P/8CRb//+PtIvPgY1PS+ld3IHBmrV5qrSiKuTaf+y8VhBrFoli4zfJkQCD6vqmEH6Y/CnaWBL1R+tHZzzyTw0u1z8KP9/OVCkp/soClH5SBE9f+VLB9CojM0u1dverF9//eVZRe/8HBfOeeNAYro2Wjt2almv3Xqmm1m7XfKSlLU84HeFopLyl8v2QYv3o3e8c8y2YcOEq37pNde4eUrefvddzcvHW04TyXoCB//dK8peM6Y72zRoU3HjcrxpaNqlN5bkhV2qq/4rtivQ0tTJ78ax4wlSFlNChpoOqIGd92GtFWvKN7XDnBWcM14efJr3ZjSn72zY1af7vrOhRuasK9LW5oEL1N+zX+dhZwPyYbcTreUtRje6rpSIYsOX0129uiYm2+vI5i4F/f5+rcleFtxaI17ilnYX57Y47MLBN5OD4Ea0EfI7AYG1eQUwfpY2n8/kOtoXYSoR/QWmR/x8waIN5FAED2JRzeqduPp7LK98aksfLxet+YPyw7g8gIV7tzlc7i/H7IWDgteK+KmeNuvfqBz0vmxMoBwIMFubPJV7fR//4Ng0MABLi1W6yt1OxvlYrg9vL2hfluC8O3HPGcLL3+qKjv6tmUPMfvh42edm7/aAu07yly1rGVi/SdwAmBBLLi6oD9RNCf66d/kjomD6wQi8QTvYkx0JaJPRL2eD/A0kPDGAGMrT/mGMjfP3Ba3Xp9jN1+MxVFVTBg1I+evCUujDzSN16+o2aefxOnbl2T/WNTKogDqcNze3qxMVbjn36zOPfKKx+V9VuVzsi8DGIBhgMTRxXxy/MOOY2mSuzVUvnbnX0/LS69ey9w4OJ4xeUV7v9Y4ecuqhfuH6j548Idj1QBhdMf2wfTuGaZeq/P846HP/jk2xrGVs9+BAQMMBKMS+zbkOxwi4KLiiIPM+8x/zDcRlA4+aTr515wBzsHpoI7KMQi2K9rbFFHZ+aUdMP3zr9n712T9Vu36ngnEq8q67bHnYM5pgifY6F/li/n2jH7wcMwAPIOMkIdpJsfInm+4VPAc0NUgIgz7/7U8h7KoPfArNvTn+k35/Z1kI+wwxnZLJBnb/Rrb58OaRuPR9UZ693qV1D1SotzR/ko/7e/XXq9NVONfNkQF25t1sdPrdT+SnoQxN16sTFdjV2uFFlZC53yh+balN3Xw07bUwc36Fy1ob3CyC+IZIQmQxtrQ3mk1JWWeD0DxrMq280uK17df16deJSu7r5bNDhH8yQaho2qNKKfN1uZc06l/wQ7bGkrZW7tDJYUrAl4j5g34+dhj314yotNU3Bxr+vfp86veuGOtJ1SfU17FNwDrbRiLKoiyucCVBdSbNnucwVWZr+seZj1n5sfZvv0pdnqvate9R4ywl1ate0AsgYbT6mGjbvDNTmupyNCiZNGPPZPTfVZPs5VbWxQa3OWqtpL1vnXqAaazmq6U9fbg9OUbmhTpdpqeix0rMht0Tt3T6pjnVfVmd2z6iJ1tOqtHCrgnkQ8djsv6m8Q+ehDOaMgAHqUz1KbX1z+rPSV0Y0/+Yc4HlndaoGBl9fsfPDVk/eBVfIk4VXSQ0Mtu/sUvdff9TKAykRlGIlEKYXXsyE4vvk6zk7d6pH6e3n34a1bwagILMXqoMU9vIHTlzUdPk5H3sp8F504z1XTCZPXtJ9cToevPnomGaY7QxNHNPl+0cPevLn0p3nTjmMJ7fA/ufWVDn3Y/BmKviPAXhCtIKPJo1Bnv3mH0CveLM72gL4DcWdLg5SuvYM6/eUj9RmSgSFHLyhcVAKmQBIo+eOXXujGl8QHqBMtMDAj39+308s4+fy6zVOmBQRD/fuO+riYbTfLxYPqN0gqc35n9Mf6ffnNd75ft/YvEk9+WZcK9WkXFN699WQWl/sDczrm4vV4zD1p271quwc+2/C9KN+p1/4BkyearbSgOhApVvcducADFC86Tp8dqeu37G7Qr+nfKSmKRE3P6LxUgqAE2QuAEje/O6g7pvqw08BIIee23ojV9qD9M9Xo7PSgy/KUNukTF7o/1LBLp0US55eHLjvRNehOpTWlsyZ0dQU2xc+YLp0efCh0y52BtJSQ1eRi/PLdJ+d1cF4Tv1TCgUeNHKa+f2BtjMqJcXbHBXg6sbIc2t9+AVQW42lbS6ZIMfvqf67rjyir37zTt2Gbcegs7pfzYy+0GWoP5ge7a4b1e/N/o/3XNV5VCdcum/nCReNRH8080/j4+nqrLlFwr97tNLVHy8r94sPDPA5S1pgULBug4J9Mv2x3335QZ25eldN3Xyinr7/Vb/3ijQC04Rn386VQ3ScU5fvqCtfvghR9q/cfWm1c0cIUQ4Krj94oxBp6OSl2yH9g75EAgO0j3HAJhsK7rHzN0L4Apt5004fyjLxDePlE073ufmFWukNZ+M92JKmVwmmRv2djql9rLJizkDHk69/UbaQrlTWlmJX4dG7n/U47rz4ztm5gcIWOi+vXTs/R89d1/WID36p6XwM+UHkHKo3/dB7/pMRGMTj+4ll/Fyxts0v3gEwEn/NHYNYvl/8JmBnjS7u9E7veAofKJNGoh/04fvDTiPKASQ8ePOTptv2/ZltLcRz/rpV6vn3+7Xyev/NiDp5uUNBYYdiS0otlGRb6M7c/JUh9R++G1Vnp7vUpTu71KuPB3T94xfdChXGS8AA/bz+adLZKYCCf3yqLaRd+AwgDCnn0dELrbp9otMvNZ2Pa7dvdPrEDgVdpOQHAQbFm3PVm99OajpuPh1QB0+3qFNXOkLGD7oSBQywwg1l8PLggxD+cF553SNKzvQnhfjGJ8X0YMd51V2zVw02HlDTI3NOzbCVN9vhjqteSj2POLSzstfVRkNpq1ZuvcCF2S9/Ls4r02MAH8APrLwDDPBoQeiH16N7vpqP+hj/7roxtW/nyZD6yDPDeXLH74Pt7t8H6gOr96gP5d8Mx1pd3KjHjzLYqUD/iBCEZ36Z/WOsZ3bf1BeVha8Gf0/3Jv85/dHMP43PTP/lxWwQkn97672gYNaR58UHEpIWGPBwn/ijT8+Y23beVFqhzQPwx11WWeP6YTh0+or+88bqLhdOKE38zx0OkTwf9wARpLRMHJ8KyUd/lIfUDxi09w6oHW091svWN/rnism56Qch44cjL5lHoH9bG1BkkQclurDIbU7Ew2Lu2uv+YyB+THTNOR6PtEUWjQBnFhCfLt957gIw1Ict5fMHMMTNvmAehd0eahsry7wNvppPZfxSExjAXI3qAJBx8IX55zsJyQgMYv1+Yh0/ya+XjwFkGBGJiMcbS8pC5pDPfzTfL5eHWHwMQB/Mx/i5CwDVd7+aBb3It31/vP+FuOdx+6GMc+U/vzBb3Xs9opVenAlg0hhS/2KbguMulcFZAo9YlKCSLe5dWw4MLtzsCakP0MHrm7sGfDXeDxBQvgkMiFaePvzNqDPmIMAA5lLUNgANBy8YL4GMRAKDy3tnV+OnBu45ZiAw77FdMNnh48R9XnZhiOIJJZ6XgZ06KZtYWeZ5uMfqP610w2zHzMcq/fm+O04b2DWwmdrsqh3RfcCcx2wj3DMUW2ofIMCMuMSV7sOdof/PaBf1wTcaY11JqPMtVugpDylMbTg93PG7r348JI/KwZSJ2gBAoPdIAcwA6Cgf9PJ87C5Qnq1/Xha7RVR2ZMeRkHZ4OX7P6UfdSOeft8XvP87Mnm0AB2T+Xu4Xn/Ifbs6SFhiQYvH4619U9mq3HSRXbLv7RlxCCpt82KYPHzhhrQ9ln5SSzj1DrvoU8x6r1oimYzIxElMi6seWYpxm23im8aOOaaOP/IGxOYdaAA+zDW5OZLOhhs8F2obdNRQdsz49c2Aw1DqnHFC+V7p7aL96/Ju5FX/0hfnwKm++v37/tUMf2sAhaWY+xkT8HD98JiS/rKJKwYyGriNsBwGmVfSepxx4oC8yR8Fqsc0Pgs9/MgIDkp9ov59Yx6/7/83PCgEH6ILPDmSXmwieu+5eEY31++XyEiswsJmrwY+H5M/2/fH+F+Ieyi+UVoTozMxy7/TtGanRiu/4kVClBfSSYv/ihwmVtdJdv7t/q67fuSfUh4jXBw0AEiYP+sfmHIpxIjHPLynLUzCDouvo+bkdhL7RGv2e8pFy4MPb4veRAAP4UoB27HbYIhkdOLlDjz8ROwbZGau1MkhKoVeKg7f4OHG/ldm+n9tz22puc+mT4urlGAx7fPRpy4dvAdHTUWX3D+Kr6fBxMGkM91ySv0W3j1V2W1lybIbtvpmPFXii72TvNVc+gM21oSdOmUuD7nOEwFOqDzMsmEXhQruI9gOwRPnYmUGUIk4DninfRh+AF+3o2PrnbXFeBD2rgtMf7fxzGuj+xxsCDIgXSzlNWmDw8JMZ0bX7r0I+OJoMrNLRH/P+o+esZaisLYWCQvVtdvhkxuKluANMUH2/HQMqZ0u92ifFCmY4Nvqh1FJ7NvqxAkv5WK3nbcAhlcyswpkRoU40wAA7OtQ30mffzprkAITwA+4Qvx6rsbhM0ECgAqYanHa6B1jctXefc9U12c0ZqGw0NvowXQLtMOGidnjK5z8ZgUGs30+s4yf55XJgu4e5GXbwOG+D3Pt9v7yNWIBBtN8f738h7l98mDUjgqmOrX8o+z2DVc61rdHN/2ffha+PVX4ozrj2HXOfTUPA4uUPE9b+ocxTfYAUG430LhrnY6rL00iAAUyvQB/MkHgbdN++a4umPxHAgCuWpGB6pVgdJrooxaFbVN7L1ObK3kdOmWPdV1z10Q5MbtCGLdQo2a9fHXqsbDsWqH92zy2n/rk9t6ztE622lNvfw3nXVmYOGLjpx2FgNH5ztZ7awuFkKHOk86Krfe74Te3YUuyW2BzDe7cN6/5twA00kO+DKOiIZQAAIABJREFUrX+iESkiUlHfXmPh5XHP6Y92/s028SzAYGntDNjmGO+SFhjgDxmKBEJb2oiHzTopGrD7tZXB9n9776AaP3JWHZ+6qU5euqUv+CpQfZti7dc/zFeovh8wQBQjRP2xXV5nGJBi5WWKUdfUqvu30Q9+wC8CNMLsBaYbxCMoskQ7lGt6b0ujAQZwJKX2sbOD6EMABXgHRZAcxnEaLZWDqRXv34//vKzffTTA4MuX3zu0gYe29vn8JyMw8OOf3/cT6/hJfml+zRSmfNh1se0GEr9j+X6pDaSxAINYvj9Ow3zfQyGHYgufgGj69qtfULRKK8ZwLjb7IGAA52MzD8+I7JPMwODBu09mR0/du7GgH+ZXRH8igAGi0pAyCAfXvOx1nhfMZkwec8falRmrXPl8R8LLPAWn7BINPDIRzJnoPcqYfeMZOwRkimSa2djKm+9g148+4AthO1UYjs9Eg+1UXzjjIh9mSLbzHRCNieoPbndHJeOO31SOUrR5eveMExnIBsowFtotgX1/aop7t4QfWAafD3P8/Bk7JtR30LMSOP3Rzj+nge4FGAgwCCusJChB0mgUs1gVG0Sa4YcomYoJf7Yp1n79c8XQDxjEGpXIxuMgwABhXmmcCO9J7SBcK977mRGhPAcGQX0MyEwJuxJwQkY7wwfmQlNSyFeiDSCNaKPUj/9ULkgajfzFqhgHoStomWjo9+PffAEDAACEc6ULTv1BvodYv1/OWwEGkf+ZCTBYWGCAEKOkDEKJ5PIc5B7mK6gPPwVb+dLCSt1+e1WftUztph26DMAAtQObfrSNFXeb0oly8Ckg+nfVjeq61IZfikg6qI/ISray2EWg9m2n+vKITLb6fPw4I8AsQ47fV4eeqI15pXNX7maVsXzO39GsR89+uyVbmI+HrX9qBymcrTFWL5DBy9I90R/L/FNbPBUfg8h/Szn/Fsv9ktwxgDJKphBQPu88/07B3Ai2zXRx58alCgxgqkPKN2zGIZTgDUVp8TMjQvndTXNRiS6OuW2NbYJO9umIKkX5cN6l8KigiUyFsJthcx73U2yp3SBpNIr1ly9mdwxwdoWtj7aefs3bJbljEOP4acfAa8XdxlN6F4/vl9pCKsAg8j+zzx4YvJ0FBnde2FfEd3aVJXTHABFsoAxC+eayHPSezISgINrq8B0JhAS1leGRiSjqDSIFkULuZfuPthCFiMp5mbLY+sQ7rPBT1CGYM9nK8XCq2FExy8D8Cf0f6rjgykNZgCGir6LIbcpGjt8IG2q27feMHQKKBASl3laeR3TCqca2MvTuXN9th1b4fNA7v5Toj2X+bX1QVKJ//crt92crL+8i/+1NBp4lLTCA0yQUSFJoTWbxkJyTJ0NtBLn9/YUZuymS34o7KaZe/e/s2qMVw2TdMQDPcCgc+OjsDhSsU5zu3sHwZkSoX74hRYcrDXqOgQ0YoC2EICXbdwIsh8+6HcNQ1o//KBP0igYYkGKLczBsZxzAqZ3GkIzAIJbvB3yNdfxUPxpgEI/vl8vG5wwMrtyN7qRvOB3DVAZOuJyXdI/zD8iUZvLk0jMlIlOolz9OuM5IAA+GD9Tr8SfClIhWzE/02H8faR5sKTeTwQFYtjJ9bEciP8d+aBzMgUjBhWkK2iG/A5j4rM5yO5VTXwhxSoo3nHbpfZC0MGeDrgtbfVudnm1DuoztVGKie6ItNFoQ2gLwgMMv0cfNpJDPzayGdxy29m+jid6Bn9S2F3gaZmcohNsRmo0O9dJpz2YyRX3ylNMfy/zzNnHPzzH47S37+SVmHXkOrqckE6/mHRhAIQ/CAJxyC8ULJh228o0tnVoxwy4AL8NNaHCIEs+je77ia9sxIFMS7DZQHZ4OjM9FBUpmYLB3P7f3H3NO8SWgEMSkIy31C/WXD3kOOAh68jEBAyj3nGe4RwQXUqiRAiyYZfCMw8vCzT/kCLsNuHBuga0NehcNMIBPCtHJzbDQJqIU4VwMyg8CDBD1CH4UpRVVYWklmnnK6Z+P7wd9xzr+WIBBPL5fzr9kAAZlOctUdV6Kc21a7bYJ5/TG4/7Lr4YcxRW28rb2YOOPkJu4cG6AWQanJEPx96pfv6NYK8aIMGTWJ8V6sfoY4LRjAj44JZqPD1GKMC7KDwIMIvn++Yr5aLP74D9Oi+2em8nACdlWhnYkEBkn3AFhiJMPJRcOsgU5RXol33b2Ae8HdJNy7OWczMvz+6K1xbquF/0ATGgfzr82HwTaccDOiRlKFbsfRBt2FnjfuOf8w4nLZr7f8/q1m3T7OODMLI8Tlykikd+OEN+16a11R18028Yzp9+Lf0Hnn7ffWjN32OmT0+mucfGycr84AQHN27wAA37C6b6AEYROX72rFS8zTj2IR4hDUswamjtChJTHz7eF6kR9nHZK9W3AgDsnm1FvsIIMExOqn8zAgJsT4YA4nJYMum12/SQUZvr3j1Y6wOCvP+SryuKUEF6bZfHMnYq5IgtzItBAfEPq5TjO5x+hK81++Pz7OVBzxRphM822bM/1O9o0nQAfMD3Dqcl7hg84pml8DH7AAM7WxHfUwxkDtj693s339wM6Yh1/LMAgHt8v5yV8Wmi+EACA53nd+9EPuaY2bb8fvN3UlC/Un0fT1T/tm70edYSeEMvLxuv+7PUurbjiFGCz3QszPTof0YnMfF7fds4Br1/X5I5Rv9iBAQ5II8Uf4OnQ2Z0Kpy7vHq5WFLGI8v2AQaTfP7eftymW5lyZz9xMCId8mfl4ph2JM7tnrPlUh3YIcCYAOTQjmk64VW7URYhQKN+IHERtBU05MLCtkiNcKCn2tJNhto1IS1QG4VZxbgFMjjAGAg3It4Vi5fyr2lgfMf3YwaC+bY7X3H/EFkqVj4WHHfVy9Oblcc/pj3X+edu3Dq/Q1gMnBhL/G8b7lvv5BRrzAgxKyiv1abVwSMXhYYP7joRciNzDJ7+xpUP/8T59/wc1dviM2tHeq1q7+xQ5t+KPGSeYmucM8FCmsGXHjgLFIt+8pUpxRQFt2P7YoQDSHz/MX6B8ot3a7TsVbPMpD6kfMEAoTnO8/Lmlw634xlMxIXMiTnPvoP3QFj4HdL+fHXL25/tZanla+BVPvuILAAXeIbwnnzdOixmRCP02tXVrHmP+cUrutsYWBaUR7dDpx8jziuxE9EcDDFD3xMVbmgZOL+75IWp+wAAmW7w+zJOyst2RQoheM53v74f6j2X8fvJLfdjSeHy/vF1+wjJ2IvHMv7+Karfy5Ed/JMAAOwUECpC2rPcH15z+aO4bd86FA/3q4wE1eqhBVdevV139leri7V59+jHyCovc9sJ1bEcAZcYON6rtrSWqpbPUqU9KMcJ5pmekhvx2g96FBgYIgTqwrzbkohCuCFtq5mG8Jp9xUjSN00yPXWjTeX7AINLvn58RgHj5WOH2uqDwmnRzMyEcdGbm8x0JLxt+qoOTkknJJYXayzyF6syeujtr4z/Vf9eTdhqTCTLSl2cq8pFA3331+5xVcKyEw5GZVtsRKhXRmqhfnnIfB6KfUoAJGovt8DbOv/wce/u8L/MeplwUihR9YqUfYA+AgYMC5Nn65+1xJ26cO4FD44hvSHFQHS+Pe05/rPNPbbdUpar/+iHfAQb/9+0alZ0ZXgegepLOr0IfL37PCzAAsdzZlytJdI8DucxB8dNXqRxPoRTyuPi8PlfcqA4pk3imyDy4twED7ArQIWdUn6d8VdwPGPB6tnvsXnDacR9PxYSHD0X/z7/7Y6DIMERTSsoXCmZE//OxwLmuT4R3QsY5CXe/+iFEGebjvnr3pRPC9Ok3f3DK4ARc2+nM/GAyXp/f23hPdFMaLTBAfZiMIboVyQ4O5gI/AVCJDn9gMK7Log6cv22HthG9tnS+vx+iIdrx+8kvte+Vxvr98nadU5Y/nYtCc8ZT2/fvR38kwGCyKk0Dg48DK1TKsvn5s+AHg5mKLT139VW6fnuId/z0XyrPUwCGqlq7ffpCAwNynub0hrsHr2jcPO0f3+acZfD254MOEHj8zbga3FfrACRqzx8YRPb98zChpMx6pbbDsw5+clx2zISWuUEo35GArT4fr3nPIxOBBijUXso41YWi70Wv7X1hzlwobWoDh6bZytI7jI1HSqJ6PIVTNaITkb8BzI5wPgI3tYEvBK+D+xAzGwv/zPK257GWOVMqoplShIele1v/ZnvY1aHyZmqbPz/6I5l/0AIQ8M/PV+n//zN7ZbfAnKOl9jxvwABmJFiFn3n8TkGh53/MuIcCYmMuziGAnT8pZij79P2v6vz0Q70LYKuHyCZYGaQIPNQflFGYr/BVSZzSa2sjZ02uc+4BTEmovhPh6Nh55/RcemfzY4C5COX7pdjBMPv3U0xgEkPtetFPbXJzItSJxIyI2ti1PU37Gvz3x3z17lKGqi5x/+lQ+c3lW107KwhdCX8AzA3KYdeCxmADRyiDnYa7X33Q5aj89MO3jrkL9Rcu5cAA4TLDlfXKwwo/AA/lt3YHj0oEnwQKnQsn8H1Hzup2qD2/dL6/H5OeSMfvJ79m++ZzPL5f3ibkETLGT1wmWbJ9P370R/L9Pe1croHBxFb36jqnM973OIiLDvYiRRbpzWeDCuYyfv219pQ7pjOkGKPuq48H1NTNHgUHZK/6fsBga22RXnHv3es2ZeLt8gPOtlS5V8B5Wbp//v3sAW18zOHuD51p8RwL2szMWq6yV83ZVbdEEJUo0u+f2+ebiqD5DNMYGjOlFCrTK9QnDsmidrA7QfVsKV+xRp0gPg+lhVt1+9SPVwql3RbnH7RsL+sI2TlAG1iJxy5H7ir3oW42+vEODrzczwFRkogemCWZ9fz4Z5a3PcOvYbzluN6ZQH+YDxy8VstOjcbOhq0+f4ezCybbzzr+FEQ3pbb586M/6PxjQXBfZ5r638/mQME/Pc1WmemyW8DnZynezxswiJV5WGGF4yZMgqAkBW0PhyThJF6YoQAMRLpSi36gFFXW1CuYdATtdymW29OUpv7jfa5eOfivH/PVnSNzf5a2Ma/JzVdba7ersiicbnl7cJRGO7i4gs7LzOc9VplJsQR4DdI35I8fNBekTrzKRPv9ePUfzfi92gr3Ph7fb7j2E523InWZ+tuxWd+CvxtLVzkL9KeaszZTVVQXOhdXcIOOPzNrhdpUnuuAgZQUUQz6Rms0sAF4CsLHhfz+g9CXrGVyVuaqTfnlCtF+wjlKB6WfAy84VAetF005nHkAEyLTXCqatuazzoa8ZQoggKwEkP7tw5WqcI18+/M5DwvV16IBBgvFIOk31OwBtob/53WO/sH49a7/YS9LjYe5+YX6VGmAA5uN+lIbMx/P5z5+zgu/+/qCOf+C6ztkC96PX4shP2dtlpp5OqCBQVll8NXrxTC+pUwjdjPIvwARl5byWGMZW23pXJhy+BbAQmDtKgEFsfB0MdUVYBBBPPzFNLGJpBXOxyPtaQqxjJc6MIDJGsxK6Jp++MY5E4J2C2BahlXtRPJ7Idv+3McfK++P1qRqM6LKXG/Tu1j7kfqhCxjx4gdMpmAWRdfNpwNOiFcyS0KEorQ0mdd48Tte7ewo71Q43ItfcIQmExyktoPR4tX/Ym+nqiRF/b9v1qovj6ar0iKR78U+n5HSL8BAgEFMSu3KjKW9ioAoWgQCzBQhSKvr/G1EI/0ok6n85z7+WOfiRfesf8Gb3qULHmPlUTLXf/3TpN4ZIDBA6ZP346qyJvKoNck83qVCG8KcchDA7+G43FHVF9P/3lLhU7hxiC9BYhYbwvE8WfIEGAgwkB/IMDKAcxfOTT8IueBA3T92KCl8HRL9Q/K5jz9W/hZmLVPFq5epNUscQMfKp2Stf3a6S1242RNy4UC4vtFtIc7IyUr/50pXb+2wwhkC/IKjdntVn8rNFtOvz1UuZNzBwI4AgzBKoQhRMCESPgmfRAZEBkQGRAZEBkQGRAYWvwwIMBBgIDsGIgMiAyIDIgMiAyIDIgMiAyIDSoCBCIH8EIgMiAyIDIgMiAyIDIgMiAyIDAgwkG2vxb/tJXMocygyIDIgMiAyIDIgMiAyELsMyI6BoENZIRAZEBkQGRAZEBkQGRAZEBkQGZAdA0GXsaNL4aHwUGRAZEBkQGRAZEBkQGRg8cuA7BgIOpQVApEBkQGRAZEBkQGRAZEBkQGRAdkxEHS7+NGtzKHMociAyIDIgMiAyIDIgMhA7DIgOwaCDmWFQGRAZEBkQGRAZEBkQGRAZEBkQHYMBF3Gji6Fh8JDkQGRAZEBkQGRAZEBkYHFLwOyYyDoUFYIRAZEBkQGRAZEBkQGRAZEBkQGZMdA0O3iR7cyhzKHIgMiAyIDIgMiAyIDIgOxy4DsGAg6lBUCkQGRAZEBkQGRAZEBkQGRAZEB2TEQdBk7uhQeCg9FBkQGRAZEBkQGRAZEBha/DMiOgaBDWSEQGRAZEBkQGRAZEBkQGRAZEBmQHQNBt4sf3cocyhyKDIgMiAyIDIgMiAyIDMQuA7JjIOgwphWClRnLYqovH3HsH7HwUHgoMiAyIDIgMiAyEB8ZyFjxhVqT/fnqNgIMBBhEpdi31qSqD9MZ6pc7mVHVlx+w+PyACR+FjyIDIgMiAyIDIgPxk4Ha0hT1n9/nqa8vZ6juhrTPTscRYCDAICKh76xLVb+/k6n+52OBc/16V4CB/CDH7wdZeCm8XIoykJm1XLV2l6uB8VpVtCEnot/cpcgPGZN858ksAwAGpOMgfT2VoQrWfD47CHEHBmty81Vze6/nhfxkFoigtOUXrtdjLNqwyTWmDZtKdX44fiBv67ZGV/2gdMxnueHWVPXXH/L1B/Mf3+aqc8MrwtK+ctVq1dYzoEYmT6p9R8+pnoExVVJeGbZOosaUkpqqijdXqMaWTtfcrEjPWBCaEjVWv3b95Nevvl/+lqpaF48bmjtUsn//n8vvl9/8Sb5bcUtJWaY2bFqj6ncUq6bWkpBr+YrUsL8fh860qHe/HHKuJ+/HlV/5ZOH/xrzNqnJ9baCrMGd9WB4s9JjWrMxT1cWNqrd2WHXVDKptm5rUqszwIK18XZVr7KWFW9XqrLWBxlpRVOPUBx9t4wdNxN/sjNWuMrH2b+tzPt6tzFilx0Xjo3Rjrp0X80FX0D4AAn66maF1HYADLIKuWP55gIO4A4OegXH18sPfeF41Dc0u4Q86WclUDgo9jbO7f9Q1poOnLut8KueVnr1+31U/mcYKWrrqUtVfPuQ5HwrSu8fS1bq14T+SprZude/Vjy4+vPjuT+rQmatq+YrwoCKePKisaVA3Hr1z0UJzkuwKazx5gbb85DfW/q7e+8qT17eevXfmP3NldtLJ/efy+xXr/H5u9bdUFarbz/dq5Z6UfEpXrwm/c3r9YV9I3U2luUkn+7Y5PdU7rW6OfRXo6qjqS8ox5WTlqmPdl61juLL3kaorabHSvTx1hZoZfWmtB55c3vtQbS9rt9YFL7PSs3XdkR1HrOU6qwd0meL8spAysfZvm8/5eteweacelyk/wzsOh4xzvmiKpp+O2lQHENDuAfSeaNpZbHXmHxjUNy0JxvopVksJGMAR55+fr9Lo+fyIv0JfUlahnnzze60cAgzwZyjkY4dOz4ssrM5ZawUoBAqQCjBwr5DG8mMWDhgQ3y/fea5W5ayZFxkIOhZfYLBEfr+C8kPKfaGyV6Wrx1+PhSj2BAgo9QMGrT3l6sWHCfX254Pq3I3upJJ5rzletmyZuj78zFPBMxW+6o0NSTeuTfnl6tLg/ZAxXB16HKLwQ/lfl7PRRXvRmuKQeuZ46XlP/birLnhakr9F1/cCTWPNx3SZzBVZIe3E2r/XvM7H+55tQ3pcxCdK27fuCRnnfNATSx+Z6cvUPzzJ1vrPSPvS9zmIOzBYszZPlVZUhVz7j53XCmLNEvljjQQYVNc3hfDD5E/RxpKk/lBODS7XH8XPtzNVSoq/EgmlnxTA01e+VDBdycjMUq3d/erF93928p6+/4OCeU8sH22Qui0duzUt1+69Uk2t3a75SEtbnnA6gtA6X2X85DdWOggYPHjzUcHUDldZRZXq2LVX3Xr6jZ6P8zceJhXfP5ffr1jn93Oqv6N9swYFNx73q4aWTWpTeW7IlZqa4ivHK9LT1MrsxbPimJtdoJW7oaaDqiBnfdhrRVryje3M7hk9BiirG3Jn/2szlmcqrFyTsmpbxYapEeU3b+lS2HmA6c/mggrV37Bf590Yea7AK/ObwG4C1YcJk5mP55O9150yFwfuufJj7d/W33y9A8jh8rK7blTzompjvWus80VXtP3Ul89ZTPz7+1yVuyq8tUS0/SRLvbgDA9vABsePaEXgcwQGa/PcPxo2PiXrO9jWYSsN/gWlRf5/gBgHzKMIGGzeUhXyQzB18/FcXvnWkLxE8GBg/LDuDyAhEX0stjbnCxjcf/Wji99Z2avUneffOXPy7NtfHcCYzPxbir9fyczvZKOtf3ybBgYACclGX6LoqVhfq5W5cCYzieo/1nbL1m3V9I+3nHDNW/ryDHV9+KlTZrL9rCsffgik2Nvs4vvqx3V+U3mHq/7uujGdDyXZHM/sjsxs/4c7L7jyY+3f7G8hn7GrQrzMzylyjXUhaQva9/SBFXqBdLJnaS8kJj0wgBnI0P5j6uTl2+r6g9fq0u1n6vCZqyqoggelfPTgKXVh5pGzUjnz+J06c+2e6huZVEEcThua29WJi7cc+/SZx79RWP2uqt2udkTgYxANMBiaOK6OX5hxzG1gi93SuVsdPT+tYJ8NHkwcv6C82u0fO+TURf3C9e4tUvoQoByiDC6Y/tB7nhauWab+++Osw/E/PgluEw4fAgIGcPjlba7bUKywi4LLz5QE8w/HZQCNm0++duYBc7B7aCKwj0Isit22xhZ1fGpGTT986/R/9to9Vbt9p4JzLfGuum57yPj4WGO9L6usUYdOX1EXZh5/ksF3aurmEzV58pIq3lzu22+08osdH4wPcmgbAxzIafxwKjbL0I6BDRig7K69+7V81O9oc9Wn9grWbVAw7zl24YbDf5gfwYl9R1tP2N0m/v3gO9++s8vhI2QIbUyevKjyCoP9QcUiP9H8fvWPHtS8raiu8+QNHPlpDjaVhn5jxL+FTmGGMzLZoM7f6FZfvhxSt54PqrPXu9SuoWqVlua/yID6e/fXqdNXO9XMkwF15d5udfjcTuWnoA9N1KkTF9vV2OFGlZG53Cl/bKpN3X017LQxcXyHylkb3i+AeIdIQmQytLU2mMyUVRY4/YMG8+ob3eY5p9QnpdX169WJS+3q5rNBh38wQ6pp2KBKK/J1u5U16wK3R+0GSVsrd2llrqRgS8R9NG/pVthpgFKYlpqmKtZvU331+9TpXTfUka5Lqq9hn6fzL8qiLq612d4BS+pKmj3Lwa6flFHbij54ADqwqwBaTJ6MtRzV9QEizHxuKoQdBTP/QNsZpz52FFJT3OYnGBfRN9A44aofa/9ED3wdwCfscpzouebsUow2H3XeURlbyucvJSVVwel6V92oOtl7zfHZQHurs4KZgk62n3PGOj3yXKEtW39e79KXZyqYHwHcndo1/Yn+Ywp+DF518J7TbysHB3KSsS1F1WHbQv2d1akaGHx9xS0Ptj4W67ukBgb4M7//+qNWIEjRpPT8jUcKW/9ezIfi++TrOTt3qkfp7effKkQP8qoPQEFmL1QHKezlD5y4qOnycz72UuC9+sV7rlhBCeT90z3MNMq3uv9khiaO6fJQMrz6uXTnuVMO48ktsP+5NFXOfQxvpoJ/DOAJ0Qk+etEQ7r3f/MMkxaYcg99Q3OniIKVrz7B+T/lIbaZEUAjBGxoHpZAJgDR6hnlMuHFEm4edDpv8Ub/Pv/uTau8d8Ow7FvkFCEY/AKI2+uuaWvX4bTLG5ddWH4CLxrF3/1FrH1B27371gy5H5SkFWPAyReP9A0hQHZ4+ePOT2lrrD+qiBQZ+8uv1+4VFC6Lz2PkbVt5g3ABdKPfs/a9hfwdt/J+Pd43Nm9STb8a1Uk3KNaV3Xw2p9cXeikV9c7F6HKb+1K1elZ1j/02aftTv9AvfgMlTzVYaEB2odItb6QRggOJN1+GzO3X9jt0V+j3lIzVNibj5EY2XUgCcIPwHIHnzu4O6b6oPPwWAHHpu641caQ/S/97tB7XiCuUySB1eBgAAiu+F/i/VQOMB3RYpw0gvDty3muHUlsyZ8dQU279RmC5dHnzotAtTnLTU0FVc7AJQX+HABaeZ35Pj9VT/XevYoShT+1BCeV3cn+u77eSf2X3TlYd8gJ9w9WPtH31gp+L8JzqoL55C2U5ZZgfofP521Y5oWnn9qYF7KmelvyP9+b47n3gxY+WFyTt6rtrY4MgI75PfA3x5AQ1OP7XH08oNdXpMO8o7felanTW3SPp3j1b6lud9Lbb7pAUGWCl89O53+g/y7ssP6szVu85q6dP3v+r3UA5sTN9cvlXBTIH+YBEd59TlO+rKly9ClK0rd19alQuEEOVK2fUHbxQcik9euq14/2g/kcDA+eP/9ld1+1MkFygKnC+wmTeVIyjLNG6M18af3PxCrfRevPXUWgb1BlvSNEqeGvV3Oqa+sMuBOQMdT77+xbExp7wgKXYVHr37WY/jzovvnJ0bKHyh8/LatfNz9Nx1XY/44JeazseQn+ff/VG3M/3Qe/4TAQw2lpTp+QHtJL8nLt50ZIHGAxkHr0yexiq/iQYGWAmnMQwfcG/zA7DzRQHsmADoTByfUl++/F7X9fr+CRigj2ff/lFBfrDTiO/n4dvf6vo3Hr51fT8mL6MBBrH8fuWsyVXwvwHt+HZgemXShJ0g4t/pq3bFxawzn8/561ap59/v18rr/Tcj6uTlDgWFHYotKbVQkm2hO3PzV4bUf/huVJ2d7lKX7uxSrz4e0PWPX7TvNhEwQD+vf5p0dgqg4B+fagtpFz4DCEPKeXP0Qqtun+j0S03rOjPKAAAgAElEQVTn49rtG50+sUNBFyn5QYBB8eZc9ea3k5qOm08H1MHTLerUlY6Q8YOuRAEDrKZDCbs8+CCEP5xXXvdQNrE6jPo3Rl846cGO86q7Zq8abDygpkfmnJqx8my2wx1vEbnHzMczlHFSEndW9rrKdDNTIOxawHTH1o7tHXe8Bt22MtvLOnT/pt08jyi0v9W+MAaaiX6EJeV9xNo/2oLjNaIuoY+Z0RcKuwTtVX3Ors21oSe6b/gy8L5xz+cPDuhw0EZkJ4DF0eZjCrsgRLsNFPH2AOAoutO+nSddffGy/L44r0zLEPqCPO7dPqkABqg9vG8obXW1yek/2G6fP74jVloYLIT6v7yYDcLyb2+9FzT4GBbrfdICAx7VB3/+6Rlz275YSbz3am4lEeYW5gTA/IL+OLG6y/Pxp43VQsq3rboDRFA+lBFeH/1RHlI/YIBVXZg+2C5b3+iLKzbnph+EjB+OvHz8tjagyII2KNGFRW5zIh59BWYdfHz8fqJrzvF4pM29HcrLmvcwdSA+wXzDBDBmef7M5w/KHDf7gnkUdnuobewM8bp8NZ/K+KUmMIASSXWw48Bpx/zznYREAANuagNTJj4+3B84MaXp2z3knr9Y5XehgcHefUf1+KCY8/Fnr85RXL6hSPN83PPvBz4tPDQqTIi4/EDJNuvz52iAQay/XwCAJH9dfSMu+vCbSPkwa+T0JsM9j9sPZZwr//mF2ere6xGt9OJMAJPmkPoX2xQcd6kMzhJ4xKIElWxx7xpzYHDhZk9IfYAOXt/cNeCr8X6AgPJNYEC08vThb0adMQcBBjCXorYBaDh4wXgJZCQSGCAcJxQvrApjddvrMqPpYMx52YVacUQbpvJYXlSt87EyzvmEe6z+Q5lFXSiiZj5WiWkVGrsGfqY+aAcKui36kNk2nrnjtQ24oEw4u/mitXMRjXBugq0PKLmgC5d5LkKs/aO/w51Tun3TFAxO2NS3TXHOy16n81HOjCTE/U8m29z+GXy869du0m3BAZzned0DGNH8AgSYEa/gzE30Y5xmO5x+mK+Z+XjmO2K2MyRsdT7OzJ5tAAdkW/5SeZe0wID+2B9//YuCImAynCu23ZY/TtjkwzYdq5G2+lD26Y+1c49bWCnmPVatEU3H7D8SUyLqx5ZinGbbeKbxo45po4/8gbE5h1qbOQk3J4JpgtkHfC7QNsxRsHtg5tMzBwZDrXN/zpTvlUJZffybuRV/9IX58Cpvvr9+/7VDH9rAIWlmPje3GD98JiQf0W9gxkHXEbaDALMXes9TDjzQF/w4QDNW5G1+EHz+EwEMYCOP/nHB/MkcP0yfoBDjsp0HEav8LjQwABjG2AGAbWZe3Hnaphjz78d2oB6+eeKv7fvg/I4GGFD/0f5+bWto1vRBFjk9WCShbwvmhLb55+UX4h7KL5RWhOjMzHLvNO4ZqdGK7/gRd8QWUuxf/DChsla663f3b9X1O/e4/SuoPmgAkDB50D8251CME4l5fklZnoIZFF1Hz8/tIPSN1uj3lI+UAx/eFr+PBBjAlwK0Y7fDFsnowMkdevyJ2DGAokSKl1+Kg6v4OHG/lZlpnNtz22rucWnwgdMHIvOY9fF8ds9Nz3zYzBNdHVX91vpQLrmdPpWHTwEUXRuYIDowJiq/Y4vdzIRMlWx28zyiUL2HLTztyFwdeuKiP9b+4eBL9E+0nna1j3FSxKYjXRdd+Vs3NOj6UNBtPhIw30IfMBUjvtlSbhbmdWaEWY/7b8CJ28zHM/WPnQwzn9PvZSZE/L+yN3hkvB9vCDBwMdtkftDnaP5YH34yI7p2/5WVDqyS0x/7/qPnrGXC0ce34m020mTG4qW4c8XCb8eA6LSlXu2TYgFTAts4oNRSezb6YYpC+Vit523AIZLMrMKZEaFONMAAOzrUN1KYciAFCOEH3MFcBM68uEzQQIoPTKU47XQPsLdr7z7nqmuymxNQ2WjkD6YnoBkmXNQOT/n8JwIY4LRo4uHVuy+VbVeM02Pexyq/Cw0MaEcPjtbm2PC8vniz5s/4EfeK1dz383trfRx4R/w1dwTN/qKRn3j8flFYV+z6cV+onV17NO1wojbpTYbnFx9mzYhgqmOjB8p+z2CVc21r3OAq8+y78PWxyg/FGde+Y25TCAIGL39wO3WCHijzVB8gxUYjvYvG+Zjq8jQSYADTK9AHMyTeBt2379qi6U8EMEBITlIs/VKbY29b5W5d32bqgXGQmcux7ivWMcLsBH0jchCUfBo7UrK/x5kEth0LKgun587qft0XHwuACVazqSxPuZkJohvxPLqnFW0o2PSO0pCIQnl2P0aYaIGe4z1XXfVj7R+7FDRWmOQQXTwl4GUDBnz+Gkvt/6+kmMMZmbdr3sN8jGixRXcyy+OZhzelELNmOerfJj8AftSnl5kQ+afYgIXZFz0LMPjCP1Y9McsvjeaPFQox/rhhBmBrH3HR6Y8dzrm2MlhJa+8dVFAcjk/dVCcv3dIXFA6qb1Os/frnK5Z+wABRjBD1x3Z5nWFAio1XVBc/50/wA34RGCPMXmB+RDyCIktjh3JN721pNMCAm4FgZwfRhwAK0Cf8DshhHJGmiA6YWfH+/fjPy/rdRyN/ZMcOHtra5/OfCGAAB2pSjolHt59960Rnwg4JeGqji9758Y/Tb5PfhQYGRD92DBCFyrx4OFzb9+/3/QT5/SBeRiM/RH8sv188zC534EdUNZIJmxkh0b2QKRRyKLbwCYiGDr/6BUWrtGIM52KzDwIGcD428/CMyD7JDAwevPtkdvTUbl8P8yuiPxHAAOE3SbHCijdMM7wuU2kHf4eaDun6KzPcPjJ8R8LrVODubXMKJXce5k67KGObX/Md7NzhxDzecjzEPh7KJfLM8tzMxBZ5x89unu9UIKqO2f5Kn1ORY+0f5kE0f6DFdpEPCHhi0jfM5s9mZoPxU/u2ULC8PbRPZcPt0vA6RD98UWzO0bx/mw8Hp39VptvihPMfkYl43+HuBRgscmCASDNY7aU/0HBpooFBrFGJbIIaBBggzCuNG+E9qR1SLPzMiFCeA4OgPgZkpoRdCbLtHj4wZxpDIV+JNtuqsJ9iRWMJkkaj2C00MMC4EBaVHLiJVzxFVClE97HxwI9/iwUY8PF63S9VYAATP9rZww4W5hm7fRT8AOZitrlPhnd+ir0fjX71BRgkFhhw+3kc6uU3X2Y+VmGhDMJPwczDM1ZxSVmEQ6ytTO2mHboMwACVIdv5a8NPlA10UDmvFE65tNoMGmCWZJYlMxPsSJh5ePazm6cdDfhn2OrD5j/c+GPtH+Y91L5fagNXWIVHPezq2OjnPgq2+rwORQfyiu7Ey9I90Y+69I6nvH+bD4cf/Zz/2J3hbYe7Fx+DRQwMoIySKQiUCRymBHMj2OXTxZ1blyowgPkBKVNkpwzePPlmNoSrnxkRPpDdTXNRiS6OuW19bR8R2ecjehLlw3mXwqOCJjIVwm6GzUzGT7GldoOkUQGDF7ORb7Bybuujradf8zYROwbUJ+zJocTDARomYTyiDvj49Js/KJiNUXlK/fi3WIABnITpm/VKK2vcJ2kuhR0DzCV3IgdQxO4OfdPgB813sqV+ir0fvX71lzwweDu7Y3DnhX1FfGdXWUJ3DCjuPJRvv7my5ZOZEBRcWz7fkUBISlsZHpmIog7BLIYUXS/bc1tb5jvsglA7NsWSHK+Pe5g5cbv5+s2hizPYQUEkH7R/yDOiETsV2TL+WPrnuxngf0tFT9jL5pBN82cz0wEv+fhtwIr4PRsdaJYXNidnKsdTTr9XFCPev82Hw49+bupl85Hh9PB7ikr0r1+5/R55ucV+n7TOx3Dawx8gKbQmo3lITtPOltvfI8yhWRfPfivupFh59c/tfG2mGDwqyULtGGCcOBQOfHR2BwrWKU5372B4MyLUL9+QosOVBj3HwAYM0BbCapLtNSk3h8/a7RP9+I/2gl7RAANSLHEOhs35FU7tNIZEAgNzjABYMLtCmE3qH4eRmeX8+MflwCa/ZEpEK9Vm+zjUjPq3AWvin5cpHP9G9wwfcNFP3z9Mhsy+gzxT/zDHspXnPji2HQdeJxr5Ifq9fj/C/X7xvnH4G/EZ0bbwe4ZnhNINekAbb2++7kmxv3I3upPG4XQMUxk44dpoxvkHZEozedK94rvYTYmI/pc/TrjOSAA/hg/U6/EnwpSIVmxxIJaN/+HewXSDlG4vM42+ACfhwj+AQp3CtAZ9kt8BTExsJj4oU5iz3tmR8LItRxnu3GoCA27mNLzDDr5xIBmNESZWnB+I6095XhGNELKVypgnAcfaP8ZPbXvtxnB6zXs+f17j5z4A4fwGclcVaFpsh8iZfeO5MGeDrtO7ze5jg+hGNMaNee7TyMlMygZGMpZnhvic2HxkbHTxcwx+e8t+foqt3mJ8N+/AAAp5EEbhhFL8AcKkw1a+saVT/2GaK2fchKZztzviENrjK742xYZMSbDbYOuf2//aFKtkAQY4PIoUC+ek1KmZT4rFnzxPTubjTUv9Qv3lQ54DDoKefEzAAMopbwv3iKBE9CC1xeBHOXK89Jp/yBF2G3Dh3AKzH/4cjWIHnxSik5thoV1EKcK5ApQfBBgg6hEU+tKK0HjVnM5I7vkBYVhVNuvGKr+kgMKUxQaM4JtC42/tdpsCkGLuBQxgM0/1bXbyFJUqWnMZ6h992KKS8eADMHMz+cefufzMx+8X7xv3+A3COLADh8PMcH9+2m6iYdal57KcZao6L8W5Nq0OdeSkMvFMv/xqyFFcYStvaxc2/gi5iQvnBphlcEoyFH+v+vU7irVijAhDZn1SrBerjwFOOybgg1Oi+fgQpQjjovwgwCCS3x++YovY97zvIPfcTAhOrLY6tCNhi+jDy+NwMCiARzovqoKcIh2/3kvhRl1+4rEtmg7KwCGaFEszjj+n3wzTibpQLHEwG+rbQ2XOhWrFWQp8PLiH+RMcqlHfZl4Ta/98pwU7M2b/fs9wtibe2JR5+EzQijxMrbx4jH54dCXb6dA2WnioVy/5AWAFjXAgtvkgEDAAn00fCb5bgJ0dm4+Mja7WmrnDXp+cdvul2Oos1nfzAgygnJMSgFNIgzALh/ZQHZg9mHXOXZ8NZ4gyWL3k+Tx+vlcoQu68aAMG3DnZjHoDRYlWVNF/MgMDbk6EA+IQ3hA02+z6OQ/5/d8/WukAg7/+kK8qi+2nJPLy3KmYK1JY7QYNNK9IvVZr+fwj9CxvH/d8/v0cqLliV+PjtEv98JVagA+YniFsKFa3SVGjcfgBAzhbE99RB6CR+vFKsZMCGcPOAI9IQ+X5ij9ADL2nNFb55eFY4UBO7SLFPJLijvHYTp8mxdwGDAAEyJwNO0i8bbqn/hGRB4eh0XtKEc4Vuzm4egdD6UMZ6h/0Yf6pHqUIREDz19ptj5xDZef794v6pZSHHg5KM9VFmpryhfrzaLr6p32z16OO0BNiedl43Z+93qUVV5wCbLZ7YaZH5yM6kZnP69vOOeD165rc57QsdmCAA9JI8Qd4OnR2p8Kpy7uHqxVFLKJ8P2AQ6e8Pt99GRB9zbvyeuZkQTpe1lacdCVtEH16edghgq08OzThcK5zfA1+NN+Pfo20oinQqMXwNTMWW02+aOQEUTLSd1opzrcU/IT9n7gwAACA+Htxzp2qb4h1r/zANIsV+cLs7VHlxfplCiE4ccmYz1UF4VqpvCyXLIybZHJf5eDkAg0LO87zuOTCwORbzULC0k2S2RT4GGAeiRwFg4CwNHI7GD2eznaFhtkXPtw6v0NYTJwYS/xtK/S5EOi/AAHHE6bRarEBihXNw35GQC5F7OAMaW+ZMFXAK6NjhMwrxyrE6Sc6t+JO89ey965wBHsoUtuzYUSDlZfOWKifCCf3BIrUBAyiAVOb/t3fmz1VcWZ6f/6eQBEJCWCCEWMwOQhJiR+xil9j3HWx2vLAaY4xZjbFdNlVeqOqqruqpqZqZiq6YmIie6B86piKmu6r/izvxSfmkzrvv5suU3nviSTo/ZNxc7nrym++dc88G8wLzSb/Y+WKbL88o0wQDQnH669XXXRvzGV9hbEKMFXSC4ZY5hOavaSnmRFKfMsRM6Tb6/LBKcvaHB/VubE3hHUetsYG5hXaE99TvTc/Fj0jE2KvWd8fr4/2zw8wuOUIf/QieeJYU2UnWMBjBgLbnrvUzj3q+nOskammCASZbuj3MbCibrcyXkshD0gYa8o6JRITAcujURXf/RX+Cv5BgVCx+YcYlkhTOrjCn2PIjhGuhg1Cqet5yLvjl+2N+HESrInGXzigdMoOiD60RJDIRmibeMzRACyZ9ILQRHlfGlVLGh4aEywU/hCjld0a/O0x+mqbmmgJIH1IO9e+XjCslCRllvawHzYFO+Cj1kko0BSIUUHbNSBfuk/rKen/F2v5woC9eH3X7Tyx37ctmuM27Wt21j7bG2Y951jI93153qdIIUOfAyRVu5bo5rmvTvKi9MMWE86wdX533/t+0YEAI1J5DnTmHhHAlbKn/jPX6tCVTtKzTL89cWR8/SxMMBvr7o3MEkFwM+/6kIxTKUpsJkejMX5fWSIQYU11fh7qUbLdJ5knSjjkJY4uPBJmT57UsdoRgZR0IGfI8ZGqj58/4K+dviPIewMRL7gXa4z9AIjYZV0rWJ6EwqYd2A2dXNAH0LYnb2G0PmbEUOz5Zl0Wjwc45PgZEdcJhGqHjem+ftoO5hezrma/QhxJzorenzHMIjAiK4j/BOnDklnWHSp1oDEEEEywfSyRL0221RoLxSVAG7Ti2Ld0fZ0OGfr4Zl/SDs7qYoem1cL6tc1+8PqI1SZtCZVdbtfvbD82RYPCvX01yDXWFeaBCfQ2HZ0MiGEAI7ewrDI8uYTx8gunss7qunMMU6rj4ur3+85f6wkxyLZF5OA8x1mgFJEmUtNel3hXv3pWvLtemRLpd6DxkRy2MTSkEAx0+lPFhMgbi91BV9TOHGdF/vp4aHTeOFHZCJnKKZlz9NcNMwuDhOMszHGpD2Zl1YjK/D7kO0V7jgPPBCga0xWSM6FaCnQcvX0cMLgKqzCFdMDgY16UNu+WhpG163jCrvmZCxtMlQoNEftLti8UvfWnhRI8p55iKhZKH0VbwK3VDJcy6nrN/zncZaqfvJZkByfi8L232pdtyHtIm+PPgeqh/v/w5aA0nv4v+80LXx9pqYsHgdc84VzUmu39OoX7TnunEYD5jK9ebd7YmrkVn/5X6ukRgaOucHmz/pgUD8bHQ8y10Dq1C9Nx1cEmUy+Cr3xyPBIFH3x50vYc6IwFJ+ksXDAb2+6N3tH2myr8OxYA/vuFSxHhFZkJj8oVQrZFIy4SrIxMxNsJBEjMo9MO0hJ1uf676mn5CZkL0IWZOur5/DvNM9mUZ0y8RRvw2+hqmlSRcfrtSjd+1qLvg+MwlZObE+Mc39oU6xQxHch3oucs5awzN3793bssHBedCBCy/DUnrZJxQCbZ0pCq/PdcILWgIMNdiHYQwRdvAfelzc3u6FgMh4C/PJsb8z4Xd+cJgaPzhfG/IBAPMD9jFvP3oawdD7/9Bw4CFCEkeAhgkYcxoxw4mNraiBQi1g1mC8RCTBRkPZhTzFa1VIEtvqA+yymJywK6ktGcuh89cjrLnyr2QH8NABAPCd/rjx4zNFz/mPaMuJjEyftL8pU9tTkSbgZgRSR/bVtbEvgZ/f93svr4+3rXPyf/Rl/pzFyzO06zgCIo/gDCyaC1kDSHhiL7QNNx/8X1cT+rffPhVtHsu4xUqtWCweEl+ltVCbeUZO/wIPHKN+YnMJU0wwCdBQueyC8+Ov/RTqGSH/OyV23GCOBmPkm+ASEU6P4XfVzH4lb5ItOYLeayB91VIUyP41XNGW4gJEt9GyDxQxtQlgh9JDiVJnvRHfgnMqXRdfS7jgx2+9ZsP+3J6SHs0Gb6JlG7vnw/175c/Pr93Mndfu+rX9a+fbBobCwZHFiczM367UlyTiEsSewkjS3nnaa/DXCZtjHVbFkSmM8IY0/aL10fd1TtbHA7ISe3TBIPFndPjHfetu/NNmXS/OsHZwrb8HXBdV86ffdeXoE2vudD5iQu5kW2kHynr6se6hon9ds1dA4hKNNDfH/wKhHFKKzHvkTlKeXHH3ah9UqjJ9lkr4v4LRbShP20Ww1yy+jyw60zUIrHll3VgQoND6vxpye9c5i9tKOmHRGD06e9wy7r9EtMVdrV1PwgEMKtTG/vzCvntSjU+WYa15kLmAeO/cHpyUj8YaepiZoMQ5wsHaFzICeHPO+kaZ+YDa87kaGpkLpRoZEJtV87fGPsySH3MgNAy4dQcapPlnjZv8v1LdHs2RA9tqnH//LRfKPjzkwZXVzuytQXQYMgEA03wwZyzw4rjJsIAf9JZ+yDJGaYGmKHAIKTt1Ib6hSnEjCJpdzTUZiTe27Gqxv31VVMsOf/tx2Z371T/n1VozZOamt3izpVufpFOt2g46IdDM+ihMYfint7NRnjNMib4K8TIJ/UBhomig5YFphCH7YF8A6XALxFwGJ81DMSMJWlNA70/vq7eIdRxZNF2iWCAtkDG4rcDUyx+DwZCP2lfTDnY3y/GBDNiSoRT/kDmMa56jPvjgT7fgj8dqHWNb+hPrXFynVvU3hIdmsHNupa6+nFu9oKmSBioqhr5f8xpdNm5vyMWbBCe0urzfLC/P1n6rtQ6OJbij8AucTHMZDHrY3yiIOE87fszFNNv1raN9U3R+hGyQsnWdD88Fyb80NpzEa7QjDB3THnoS9cfinOiPPH+iN5USEuTdS5a8GVdoXYzp4xxCAFiJUH5x4cTXMuk0fHbM2wEg9DLs3tDYxKg6Yyt3b+8bIw/mN/fz8/qqOuPxHMST0lWaXZxQ86xI3Hdw2lNIhgkmeINp7VojRdO1wOZ+7Kp/f4FN1aPfBX4QGgzXOs2Tq53t5/0xILB/NbB754OVxrYvMvz30/oTxEM0hKXDcd3gHAjPh6XdtxN/C3tnNcfph3fAiwkJk8cHUIB79UEgwHEwx+OH0I55ozz8b4NNY5YviNdMMCEAyZTDkxSxCkXoQDTMnb0y0Fn63Pwf34jSTDAjwSsYU45febsAWHtdEd1bEbU2pRs+mdYGzzWykk7TKYwi5LjzpOeKMSrmCURoaimxt5rOd/BaOpbJ34jidhwXfvqBZscyd30ISZSIviEHOdlvW1zqty/fTvZfXy61s2bPvq+LxMMTDAo6uOfMH5kS9HYxYttt18SgrR9aXZbS/nRsbL8TNhIEQwwnRLcZclU7mPreXeff8GXW0149WkzHK5f/upYrBkQYUDKx68OutaOwhG1hsMabY7l/z3MSmOSvQnjTBSjrO0qrR5hTmUdfomfQhbH6dHgS5D03kwwMMFg2H78SaAu5X3yLly6+WnOgQP1rgMnKsLXoZRrHUl9ESCA93bmyq1hjW+iX6G14giF9U17Zy31Y9yst8a4SSNcgE+jw3B9fvHmZnflzpacg4RwO/cvyXFGHq7rs3lXjlDAuyAJ2ZF17zoYa8KeDtf3g4DDOvRBVCLC074pX5PhREsTDEwwGLYf/3D60GyulfUHaO/D3odhwDBgGDAMGAbyMWCCgQkGJhgYBgwDhgHDgGHAMGAYMAwYBsz52KTFfGnRaGI0MQwYBgwDhgHDgGHAMDD6MGAaA5MObYfAMGAYMAwYBgwDhgHDgGHAMGAaA5OGR580bO/c3rlhwDBgGDAMGAYMA4aBfAyYxsCkQ9shMAwYBgwDhgHDgGHAMGAYMAyYxsCkxXxp0WhiNDEMGAYMA4YBw4BhwDAw+jBgGgOTDm2HwDBgGDAMGAYMA4YBw4BhwDBgGgOThkefNGzv3N65YcAwYBgwDBgGDAOGgXwMmMbApEPbITAMGAYMA4YBw4BhwDBgGDAMmMbApMV8adFoYjQxDBgGDAOGAcOAYcAwMPowYBoDkw5th8AwYBgwDBgGDAOGAcOAYcAwYBoDk4ZHnzRs79zeuWHAMGAYMAwYBgwDhoF8DJjGwKRD2yEwDBgGDAOGAcOAYcAwYBgwDJjGwKTFfGnRaGI0MQwYBgwDhgHDgGHAMDD6MGAaA5MObYfAMGAYMAwYBgwDhgHDgGHAMGAaA5OGi5OGJ4wfYz8k9kNiGDAMGAYMA4YBw0BJMDB+3M/cpAbjLd4Uf2oaA/uQB/Uhr+uodt/fHO9+e69uUO3fFOBt3OIEQaOf0c8wYBgwDBgGyomBznlV7v99N8V989541728xniMIeZTTTAYYoKX82Mair43La12/3ivzv3n66nR8fv7JhgMBd1tDPsjLgYDdfVj3bruBa7nYKebPrPR/mjtd98wYBioWAwgGAiPQfny6ng3dZJpEIr5DxhI25ILBpOamt2aDVsTD54PZIKVWre5ZUa8xukzZ+etaebsefHzQvTg2eIlK/LaV+K6966rdv/xQ3P8wf71F03u0t5xBec+YeJbbv2WHrfv2Hl36PQlt6XngJuzoLVgm3Ktvaq62s2au8it6NqU927G1Y5/I3Mq11qt35EnSFRVjXEzZ09yy1bPcqvWzck5xo6rLojfExe63Ne/PREdj18ddGn1KwU/b0+Z61pndGY6WhpnFKTBm17TpAlTXPusFW5r5163uaPXLZm9yk2sK6+QNq3x7Uy0mz+traJp96bf3XAcf17L4kzvXn9fdePqKwIHCAG/ujM+5jUQDtiEHDfWhIOhwGLJBYMtPQfd59//t8SjY/maigBescSFoZd1du/an7em4++8Fz+XeknlxRsP8toXO79St9+8tNr9+/dTog+V8v6ZWjdtcuGPdNX6bvfJFz/m0eH5L/+rO3HhAzd2XGGhopRraO1Y7m599nXeXOSdjBSBtZQ0s74qR7hY2NbiPnq2O2buhcmX8q1JhTV3Nx7uzGk7e15Txf/mgL93tt50dw68yHRsbNtZkWtqrG9yZ3wGe9sAACAASURBVLrfC67h/d2fuaVzuso278Pr3gmO69P03W23yjaHUv2OdHf0uu4lu13b28sqfq6lWvNg+6kaU+Vu7nua6d1rLExuqKyN242d1ZFAINoD+I7B0sTaZf8/G3rBYNmqEfFiR5NggCPQX55NjKX3y/vSGfo58xe5x9/+Y8yIIwzoaxjyAyfeHRIsvNU4OSigiFBAaYJB9h8N+4EdWlo1TKx1j745kMPYi0AgZZpgsG7LAvf8+yPuq98cd5dudQ/Jd1csTsaMGeNu7M3O3LS/vbzi1jW7eYG73vsgh0H7YM8jd3v/5/E9ztnZL5ZeofYw/JrxSzo/2HWuLOOH5jSYe2hbZO49K45W9FwHs75St4HBF3plLW/sfeL45ko9l2L7q6sd4/7H44aY/9i3wXwOiqVpWvuSCwaTJk9x8xa15RyHz1yOGcSOUSgYtC9blUMPnz7T355TcR+jBs47vWPjj/I3H9W5qqp0xgimXxjvd9//2GF6Nb6u3q3r3uWef/eH6NmTV79zmPfoscpx3rVxezyXDz/5wq1a1533PmpqxpZ9HuVYm/WZjsXhTqPVG+bGQsGtR7vc8q7ZbvaCppyjuroqFb/jamvchIbhs+PW1DA1Zm72rDrupjbOKHiMq6m8tV3Yfjtew5Yle9zMpr7f+vFj69ze1SfjZ5yXA6doK4RuC6d3xOOhSZD7lOU2aSp2bXruXYuGh2Bb7JqLbT+1cXrOO8a0SISEA11nc56BgSkNLWXBYLHroP2yBf0WC//3VZNrmlh5Akwp1lkpfZRcMAgtrPfgqZgxG42CweQpUyv2gwu9L/8etn2o8vAvmDc9nQGhPeZRIhjMXZhrv3r1zqP+ZwsWl502PQdPxuMhJPjrs+uRz1wP53e86+CSWDBASBjOaxnI3BfN6IwZmZXzNwy7dc+f1s+IhXbka8eOd+zSwqwd23Cx7OtbNGNJTM9KNbtKwsfaRVviuS+Y3l52WiXNYzjf13hc17pt2NHw5tFx8QblsS22kVdOLFa8YIAZyJ7DZ9z59z5yNz596a5/9NSdvPCBy8rgwZTvP/6Ou3L7M3f3ybfu9qOv3YUPP3E79x1zWRxOl6/Z4M5duxvZp99+9HPH7ndb50q3egA+BoMRDPYcOevOXrkdmdvUTWhwXZu2u9OXb7q7T19FNDhy9opL6nfXgRNRW9q3zEhWUWMORR0OTH9CQGuZNMb9/XWfw/H/fNwQrBNqhw+BCAY4/Oo602bOcmhROCY2Tsp5putxzvvHcRlB487jb6L3wDvYvudIZh+FYgTTJSu63Nmrt93Nh19F41/88BPXuXKtW9jWGdOufenKgmvw1zSQ66nTZjr8ds5cuRWN/969Z5ET9+r1WwpqWyoFPwNZaznqYoaz79hyd/lWt/v48z3u7rNed/HGZrdtT7urqUkXcmm/+/BS9+4Hm9ztxz3u/U+2u5OX1ro0Bn3PkaXu3LUN7sDJFW583dio/pmr6939L/ZGfRw5u9o1Ti7sFyD0IJKQmAwt7pyeCWvzW6dG4zMH/9i5f0mmPhi/fdkMd+76BnfnaW9EP8yQOpbPdPMWNcf9tnZMy9yfrClLCfMiO5xzpi4c8BhrFnY7NA07lh10NdU1DsZ457JDDvOaU5uvu53LDyXulFOXthyF7K6XzlmTWG/f6lPx/NF+hNbMPNAqMBf/uZ5/VVW1Y8d329L97vzWDyOfhV3LD7u36gv/fuo+17ZujeeTxexKjz9Q+ulxMafas+qEO7Xpmru04yN3eedHEf0xCUqiy6oFG2O68g60SdSRde/mPON516ItefSTOaCl2b3yWEQzaE17aIl5krxjmGapL2Wp1o8mC9of6Drtzm+9Ea3l0Nrz0T3oKuMllfW1DQ6c8b7Pbfkw6mP/mtPRvaQ2oftrFm6O3z8Ox6E6oXuDpZ/0hZlcz4oj0Tu/uOOOO7bhkmt7e7l7q35yQfpLeynXtlfHgsE371uwEKFLOcqKFgxWrt3sHrx8HTOYwmhKefnWZw7TpSTCwPg+/qbfzl3aSfnRs184ogcltUegELMXaUOJvfzRc9fieaU5Hycx8Enjcv+DT15E/T/44kd37Pz1eCw9j0+/fO0WLM7/k99z5Excf9f+44nru37vWVSP9TRNDf+5r2rt/xi/vJr9Y4QmMlfoWGitSc/S3j+C3qy5C/L6ht4w7nJoIWXzjr3xfXlOGTIlQqCANrIOKcEEQppcb9y2O28OSWsayP3Z8xa5+y9+iMeR8aREWEgyxaoU/AxkvaWuu2LNbPf424MxUy3MtZT3v9jjZsxKZqyWrZnlHhVof/XuVtfQGP4mbn62KxoX34Bj76wJzoHoQPMW5jv7ITDAeMtx8uLauP3G7Yvi+/Kc0jcl0uZHsl4pEXCy0BqB5Mt/OB6PLe3xU0DIkev1WwfOtGcZf/fK4zEjA3OUpY2uI8zklV0fO5hQETJ0ea3nQZA57ZyzKq7fMSss+MPwvdf7MKp3recTV1Odu4uJFkDGKiRc6Dnrcz3/bZ374r6kT8qrPZ+4xgnZHMlhjqUtZiZ6rNC5Hn+g9KM/7NX3rjoRjylj6xIHWTGv0nM4u+WDgu10H5wfWhv2kdjUvsvd3v88ry/8OrYv3R/fXzFvfR49il0/62mduTR6R/585RpBpWH8W3ljCy0w8UGQkvp+iSYKR2OpX6hEsJD2SQKZ374Y+tEXwv2tfc/icWV8SoRFuQ7R35/LW/X9m5R/+mxCpjX7fdh1NuuAihUM2Cn97Ot/iJmi+59/7y58cN9dvfPYPXn1+/g+zFHoZc9dsNg9/UV/PaLjvPPePff+x89zmP33738eZK4IIaqFghuffumINHT++kc548OklVMwoH/W8dHTV1EknzOXb+XQBZt5nzmEWRbmkfWG6NPU3BIzvdfuPgnWoV1vV00spV/dn+50LGOh5eCdMY/H3/zWhUK6St1QiVbhs69/E6/j3vNfRpobGN7c9/IyT/Nz+tKNuJ3QIa30nY/Bz7Nf/lPcz82Hye+/HIIBAqsWiq/cfhRpvo6cveo+/vy7eF5J+BfBgHW/SfyE3u1Q3GueNtE9++5wzLw++HKfO//eRgfDDmMrTC1Mcih0Z1PzhJz2D7/e7y7e3Oyu39vmvnh9NG5/9lo+Q8H6RDBgnJe/OhZpCmDwz15dn9MvPgOEIdU0OX1lXdy/zDOt9J2PO1e+HY2JhkIOYfKzCAaz5ja5L399LJ7HnSc97vi7Xe6d9zfmrJ95lUswYDcdxuG93k9z6KNplXTeF5WljyG59RNjeHzjZdfdsdv1rjiaE7EFhsnvZ/qkWTHTsqk9LEixoyyMDTvCfh9E0ZHnaC0G4tip548DNowskY0QlvavOZPDbDEPf+zQtdATRg0NRKiO3NPjD4Z+9LO+dXu8fsZk/O1LDzg0KQhSQpuTm67kzaVPk3LHXdjed0hdTK/kni5D9Cc0rLSjZKea8UORmtBqyNopS7F+Qu3qyEDs9iMoab8T5oXApseWc+ZE1CrqINygJdjQtjPSen2453G8NsLeSptC5YmNl6M24CkLFouhH/NAKNL05/uD/mhLtPM9dXz6J63jfz3vC4Lyf75K3tBJamv3swkF0KliBQMd7hPmp3Z8v9qdndRPvujfSZ3f2pH3YZx49/2YeWJ3V4MCoePTL38VPw/tuiNECDMJM6bbM548o0wTDDZs7XGYfoSO0NiMpRm7Szc/zVk/jrx6/aE+YGSZG0x0y/R8cyIdVnbb7vw/Rlnvkc39jsf71qerPaUdJTkLhE6YwPgCjK7rn+v3hzCkzb4wj0LbI32jGdLt9W6+1EkrfcEAczVpg8ZBz533rzUJ5RAMdh86HY+P5kKvr+GtRqffb+Ok/B3DSsGPnvdQnuu4/TDjmvlvbmlwn7zcFzO95ATw55bT/tp6h+Ou1CGXwGcqStCchflaSy0YXLmzJac9Qodu72sN9G58mkAgz33BQOaqy4c/3x+tOYtggLmU9I1Ao4UX1itCRjkFg/d29+3GsyuOaU/SEYq9jiOlZkp85hk7dXlOSFRNJ87Z/ZedZhhx/zmM9eWd96I+0BrgL+DXmdO8MB6DsWBIs0YfmtIwLafthsU7cvrX/hfH1mfzTxDtBoypP1f/ulj60d+ln3a6oaO/bt6ZzIeoTf74+hptkbwrhAr9LOkcxh6BUtrB5Oq62qyGOvW1uTvQxa4fxlvv9K+cvzFn/FnN893Nn3bSYf713OT85Kar8fx9Uzq0LLK24xsuB9tLP1LyHdEmhHepI2Wx9GP9Mh5j+iF50RDI/Cl9+ss8/PL17b7cBjgg+8/sOjvjn0arihUMhLF59M1vHYyQvxDN2Hbv3Jf3HJt8bNP3Hj0XbA+zL4zfph178tpLzHt2rYmm448/EFMiGSdUsk6/b65l/bTxbfR53nOg36EWwcPvQ5sT4U/hP8fngr6fYUbUnByNQAsGe9b1M0d+f/719j2H3aOf9+/4Mxbvw6+XdH3jwctofvRBkjS/HmsSeh48eSHn+fxFbQ4zJDlOKQ0CplVyX5da8GAsfFnon932kB+Efv/lEAwQBhkfATBk5qTD5eLv4tOnUvDjz2uormF+YVoJ0VlXn6/p2rGvI2Z8D57KZRqYozD2z3844uon5Lfv3rU4br9pR64PjW7PHBAk/HXvOtDvUExGYv18zvwpDjMoOU5f7tcg7NzfEd+X55Ra8NF96fOBCAb4UjB3tB2hSEZHz6+O118OjQHmFZpxKHQespderHYrsWsP7ZBf/4lxxO5b00nOsYdm3NBzbL5lThvbdgXbwxxhVy71pIQxh9EPCRMy9uKZy+N2CCDVVfm/vbLrjqmUtEsqJ4yfGPfHjm1SPblfLP30+2OnXvrVJaZYCAiU+r5/rgWsrE7Tc6cuiteLpsXvE8FPGPOQYFLs+tkBl/eNpsAfn2sEOuqgkfGfNzdOj9vjE+E/51o0D6c2Xws+122IgiXzAZP6Wei8WPrp9eMT44/B9yhajxD9/fpy/eMtEwyEFuUsK1YwePiTGdGHD77IAxUEYZdcGMPDp8M/PIUIh1OxtA/Z4YsZSxLjjjAh7dM0BlIvVCb1L4wdZjihdcDUSn+h+b89Z378nN163QcOvWJmVciMiDaDEQzQ6MjcKJ/+os8kByFEJ7jDXAZnXg5faBChAlMpPXc5R1jctvtQdCxdFTbnkLqDcT7GdIm5Y8Il/ehSv/9yCAai0cJ0To8r5zNmzY1pfPBU/o5hpeBH5jvU5fPv+8yIMNUJjQ2zv6W3LTqWrJiZV+fpLwu3Z5cfxpnj0Jl8Vb4IFp//cCSvb+YDMy/tEVJCc5R7g3E+lra6HIhggOkV88MMSfch5xu2LYznXw7BQDMmwtAklSF7aW3GsnzeuuAaxEzjTPf7wecw0IwZiu8uidfISRDSWAidcC7FTlvG0mtAMJkxeXZwbD3/JPtrEQxCjJeML6Wm59Yl4XcqdSn1+IOhnxYMru66n6cx0GOlnRORSujm7/wntWWN0iYkONJObN9xivb7KXb9OImnjY8DNGsLRdwiO7a0nzVlft78mK8IrlkEg7enzIv729zeG+xP06BY+mkzuqR39uHePnOoEP31XPS5CQal0wpouvrnFSsYwBDDmBHa0p8019isC/OJc26oDpl1N2ztdTBOZ6/eceev340PGC5pH2Ks08bXO7ZpggFRjIj6EzqSchgIY4fzcWhtS1etKzh/2uAXwRoxe8H8SPqBkZW1w1zL/VA5GMFAm8Gg2SH6EEIBY+J3IA7jRJqSeWBmpcdPo7+um3Y+GMFA7PihYah//f7LIRjI+tEYEIXJP3Q42BD+KwU/IdoNxT0YchhbfAIGM15a+6nTJ8aMMc7F/hgiGOB87D/jmsg+lSwYfPr1T2ZHT/K1kcwf8yuZfzkEA6LSCGO0bO5ah2lN0hGyl9aOjeyW++9AM65J5ilk2ZU5aOdhTJrkPnX8vkPX7IrjxHyw62zMkNIHzH1ox1w77TJXv0/ayBxCoVD9+piySP1lc9MzLRdLP21qJeOieSFfA/4AvmmRP199jV269IEzrn6WdM4uO23YjQ9pW3TCNHxO/H6KXT/mPdH4+54Fx/fH86+lPX2wwx86ROMBpvz2/vXyuWtjGmbxSSiWfjiDM3d8CUL4Jm8Gzzl6E3ws/DVwbYKBCQYR0zhYwYBIM+z2CuNZqCy3YFBsVKLQB5JFMCDMq6yb8J7SD+FauZ9mRkR9LRhk9TEQMyW0Ejgh08/eo2fjuUjIV5lbaFdcGOOk9y9ryVIOZ8FAaFSoLJdgUAr8ZHk/5aiTxtinjZnW3gSD8goGOOsK4wATl/a+/OeYj9AePwX/GdfzWlrj/nHoDNXpnL06roMwIHXE9psdz5DQIfWSSswsZLefOWKW5NdFi8GzJPtzbWOeRTjR9Hy7KT0XRinoxzrPFYguBLOrBS6fBnJ9dP2FiBZJTL7U0+XFHXejNpd23M2jLfUWKh8TciTotpwXu37Mu3h/OEj7fWe5lvb0kXZkef9bVVQrHOvT5lAs/XREp9BY+vsL0T/UhnvmY2CCQcRIJjGGhTQGMKNiCgJDde/ZLx3mRtjly6GdW0eqYICpjjCU2MzzYUGbx9/2hXBNMyOi/vZV/VGJrh3It7UOfcBin09UKXmO866ER2VOYiqENiPkPP7GBYPnfZF/yF0ha9Dl+i27YtqWU2OAk7VgNqls7ViWN8dSaAxKgR9Ns6E8T2Ps0+aS1n7ECwZf9WkM7j0P74iv3Ty/rBoD7NJhiGC+095V6LmY7hDdJvRcaySIqR6qoyMTSdQbzDqEUWMnO9Quyz20INIPZiN+G5l/kpmTDqcaEiz8/nTo1EK+DdJOxi+GftIXpjzkjyAqjvQra0/qX9pSihMzpjP6ftI5GgKJpIRQEaqnI0qRVdmvI/NMml8h/LBDLlF3cDj3+0671u0ZnxwNhY4s2hfRADAvP6yuP59S0E8S953YmB9xivEQxgUDiwL09+ck1xKV6H+/yNeiSR0rixceKtaUCKdjGEhhaP2XrUNyHjufayOo7e8J8+i35Tptx10Y06Tx127eETOGaaZEb0pjwDpJCgcdI+3A1GlOz3trb2EzItovmFkVhyvNmscgJBjQFyFIxXdEBJaTF/Mdk6ibRn/qZD0GozEQxpo8GCHnX5zaZQ3lEAwE/5gMZV2nrifzL8YUjf6KxY+e01CeC2P//v3BZbrG6RhTGZxwQ/Mm/4GY0hw7n7/jO9xNiWT+n/94JC9HAvTYe3RZvP5ymBLJjmmS42boncg9baZAAiu5r8udSiOBo6d+Juf4BwiDSZhQ7ovfAWEok5KLtTTOiDQS7IpKX36pHWp9wUDPH9Mbvy3XOgZ/Fg2ARFDC3j/Un76nxy+GfrpPOR9bPc5h1iQRn2AOQ6YmUr8vOtTnEROZlcnWjrtJwps21fI1UsWun/cvTK//bmVdhUrdPkmbVah96Jn4I+CIH3qu7xVLP/qS7+bI+nzHad43DsdCoyxaI/rUeQx+fTc/Cpheg51n549CtBpywQCGPDQR/x5ZbmG8sPX2n3G9omtTzJixk6rraBOITdvzIw5RV+/4hjQGYmOOtkH3Lec9B/ujAlWyYLD7cH/YS8KHksVXBIUsAktN9c/cv38/JRIOsmY+FsEA5l7oJSURlIShpkRYkGe6JHlZofcPjtA2cJC3QLf1zwcjGOCTIvPUZlj0TZQi8mLI8yyCAVGP8KOYt6it4Fxl7hKViehYcm8gZakEg2LxI3Oe3zjGtU+pio7Zb+XG7Zc6pSw/frEnYlyxlQ/1i40/ITc5yBvg1yFLMox/Uvtlq2fFjDERhvz2wlgPVx8Dsh2L4EOWaL0+ohSxLnmeRTAYCP71jimx2/XYWc61mQJOpKE2opHATjsUsUjaYAoCA4ODJEnBZCc4lPtA2uiMxyH7durh0CuMkW/zTRZeeRbKiFw7ti7eecf5OWkMmY+mZ5bQlqWkn8zBLxH4ZI2sx38u11prgzmM3C9U4tAtfeP47dcl467Y54c0UsWuf/rk/hwYfphZmQuaDIQjjubG3OSies1oJqTNYMssGgDdd7H0oy/5TtC8+BoqtG/yftAs6LELna/r6E+2+vjdwpGsCvVjz9KFhiERDGDOhYk6lDGC0Lsf3I/b+HHqebGXbvSFc6Tf5WtyPx4dPz8UqpP22nkzJBho52Q/6g07yJiYyJoqWTDQ5iAkiCNbMvMO2fUnfTD//bMJkWDwHz80u9ZZ6VkWtVOxFgQxJ2IOQjfKkH0889Dvn9Cz/tz0+09zoB6MYLBs9fp4nggfmJ6RNXnH3qORaZpeQ5pggLO10J125Ojw1+NfSzhU8lAsal+aV3/PkbNRVm80Glt7D+Y9L5VgUAr8VFf9zP1hf63786G+47ONuRli/bWX4vrijc0x40oWYL/PK7e3xM+JTuQ/1+1DeQ50+6Wr8vOEDHfBgARpwvgjPJ24uNaRdXn73nYnEYvkeZpgMFD8a/v5EGPnvyv/Wpt5kGTJf861aCTSYvqLhoCY7OKQSjQbf5dZj4EzqzA+7QEzJZyJxTwGXwOfsV+9cFPcPhQqlWyy0n8Wx1PN6IUEDT13zoulH1GU3tl2Mzqw5ff7h3ZiaoImw3+urzFDkrVmsaWnLYnFpE0o1Kf2twhFdCp2/ZqxPx4I1aoTh4U0YpgGyfxDjrnkQHh/98Mo3GeW0LMtjTPj/tA0afqGzoulH32KjwzrAMNgAvM5viERGuRZaA6he3dPjoutF871lP8/JDSH0XJvSASDOQta42y1OKSSPKz30Kmcg8g9mugrujbGjNmTV79zB05ecMRrX9e904lzK0zW3aev8vIM6FCm2LKjUcD0iP7nLmyLIrxoxi4kGMAASh3MX2A+6bdz5VqHbb48o0wTDAjF6a9XX3dtzGd8S8XYsWYxB9FzDjGTmv76/LBKcvaHB/VubE3hHV+tsUGAgnaE99TvTc/Fj0jE2KvWd8c05v3vP/6OW7KiK0qaRj+S/ZhnSZGdZA2DEQxoe+7a3XgOer6c6yRqaYIBJlu6Pcx8fUN+pBSZL6XWiBGZCE0L6yTCE7v4kpUZoYXwsLot55WEHzQFIhRQds1IFy799Qz0esXa/nCgL14fdftPLHfty2a4zbta3bWPtsbZj3nWMj3fXnWp0ghQ58DJFW7lujmua9O8qL0wxYTzrB2fn0X2TQsGhEDtOdSZc0gIV8KW+s9Yr09jMkXLOv3yzJX18bM0wWCg+Nc5Akguxg5j0hEK5anNhEhU5a9L76CnMVZkShYmTRiaJPMaGYc5SRt2pMmcTGhKQoayDp34KWQqgjZC2lNiTkS4SQQmBCUy13Kf3WYcfGVcKTHN0PQSgYY2MMr6Wcgcqlj66QhImK7AaMOcMn80OAgNsj7oK/MOlZpJJrzrts59OfMnUZ3fDlMgCUXKOGgaGBuGVwsFPAslryt2/eyQS3I+xoD+aCEQCNAmfaCyFhOpyp8/5lbXevpMbdBs4F/AO0XAg5baDCcpFKvuUwsioe9F1+W8WPrRB+uSd+yXmOXJtxSivz8frrvaqt3ffmiOBIN//WqSa6grzIOE+rB76ZoCodGQCAYMpp19NZMk5yTkkklJqbPPSj1dwhTquPjSjlIzbtJGmEmuJTIP5yHBAK2AJDmT9rrUu+JpgoFuFzoP2ZGXkrHT4UMZH6YyixmR0LOq6mcOM6L/fD01Om4cKeyETJ6E+y/6M1P7a/7g/ucRg/vk299FDPPDr34dzM6sE5P5fch1iPYybykHKxjQHpMxolsJdh68fO2gJwKqzCFdMDgY16UNzt+hpG0yXynBpYyRVBLtSerrspLwc6ytJhYMXveMc1Vjsv9A6TUN9FwnBvMZW7nevDPZDlxn/5X6ukRgaOsM26e/acFAfCz0fAudQ6sQfXcdXBLlMvjqN8cjQeDRtwdd76HOSECS/tIFg4Hhn51hn5lIug4lr2KXlvqRmdCYfCFUayS2LAmbmgotdGQi+oShIWyqPA+VZI1llzRpztJPkpnJ8Y19oS7ZVRfb8FBfCByh8bVgEmqn74Xsu4ulHxoRSR6nx/LPcaxNc4RlfZLIy2/PddL7I+JRqD73tKlXiIbFrp856zwISfNIMnOjfdei7sT5S3/kCgi9f/8ewqS0CQmSfn2ui6Gf9IdTP9GJxN+ATNdoLLSpVoj+0l5KhIC/PJsY8x8Xdpu2QGhTrnLIBAPMSNiFv/3oawdD7zM6MGChRZKHADt/Ycxo9+TV793lmw9jLUCoHdF32GWWCDwyHswo5itaq0CW3lAfjZOaorwH7MpK+yjC0ZnLUfZcuRfyY8BcRJ6nlYTv9MdPY+w6lq2K+0+av/SpzUGYy0DMiKSPbStrYl+Dv79udl9fH+/a5+T/6Ur9uQsW52lWSNqFP4CEMEVrIbQJCUf0habh/ovv43pS/+bDrxzmPjJeoVILBouX5Ge5LdRWnrHDj8Aj1+u6s0clwidBQufiBH4okJBM+vVLBB+S/EmSOFk/+RVwJPfry3Ul4efJprGxYHBkcf7uusy5HCWJuCSxlzCylHee9jrMZdLGXLdlQWQ6I4wxbb94fdRdvbPF4YCc1D5NMFjcOT3ecd+6O9+USferE5wtbMvfAdd15fzZd30J2vSaC52fuFA4tn1d/VjXMLHfrrdrAFGJBop//AqEkUkr2Y2VNUspoRZhSuSeLvUOalpEH71jzVyy+jxgN4/jq5jMyDowAcHOf/605HeOgzD1SaKGEOMLB2gcQjvNssasghVzC+WAKAX9cIjW5iSyfkr8IjZ39Dqy8cqcC5XkLiCqEoyl7ofzpPfHrj1mVrIzTV3wADPdqbJWh+hYivWzHnIHvPdTdm2ZN/Mh3O2cqQtT1750TldwzQiOoUhKSTREwyXj142bkDou/RRDP38eCH86CWAh/xrdlg3JQ5tq3D8/7RcK/vykwdXVmrZAaVwCTAAABQlJREFU06kc50MmGBQ7eXZYcdzEJAghI2t/JDnD1AIzFISBLDu1ft8whYSExCTKfzaarnesqnF/fdUUS+5/+7HZ3TvVzyyEaDGpqdkt7lzp5md0ug31wT00HPTDoRn0pPrlvq938xFes4wH/nSiuSxtpM74unqHUMMxEG2PtH9T5bjqMe6PB/p8C/50oNY1vqEf9cbJdW5Re0t0aAY3K13q6se52QuaImGgqsr+mHbu74gFG4SnLHQsBv9Z+q/EOjDe2NSzU9s0cWoqnRAohIkjSRRrwjkax2d2Whvrm1L7qCQ6oD0gAhMmP5hSNU5oCgoj5ZozwgcmRIV8Qso1tvSLuRZ+AQiZmLHJ/awl7xz80L6Qo3bW/gZSrxz004I/uA7NZ+aUMQ4hQKwUKP/4cIJrmWS/vSF6lfresBEMSr1w629w5hzY+v3Ly8b4g/39/Wy7PiOJ3k3NLXFWaXbwQ87BI2m9xaxl2dR+/4Ibq00FXAwtK6Vt4+R6d/tJTywYzG9NZ3grZe6VPg/t+JnV2bbS12TzG9x/7UikG742osUplPytc15/mHR8C7BQmDzRhIKhwoQJBgOIhz9UL6XSx8H5eN+GGkcs4ZEuGGCyhlmOHDcffhnlhBCTHkzL0EpV+jt7U/M73VEdmxG1NiWbnr2p+dm4hZkWTKYwi5LjzpOeKMSrmCURoaimxt5rqXCkE5+RxKxU/Vo/hXFu9CktfVYv2OTwIdGHmMiJRgysJ9G9bU6V+7dvJ7uPT9e6edPt9yWJTuW6b4KBCQaJH2cW0E0YP7KleKJoiRDgl4QgbV+aH1UiC91GS53n3X3+BV9uNeFpOL7zl786FmsGRBiQ8vGrg661o7Aj7nBc85ucMwmxhHEiCs2bnIuNXVpmeTTRk2R0gmO/JCjAxradqdg2X4I3hz8TDEwwSP1AR9MPmr9W8i5cuvlpzoED9a4DJyrC18Gfb6Vdt9SPcbPeGuMmjXABstLoXqr5XLy52V25syXnICHczv1LcpyRSzXeaO9nzcLNUUhRGCvCVo52etj63xxzWAztEXAJjasPAgUQnrepwUwPi6HtULQ1wcAEA/vzMQwYBgwDhgHDgGHAMGAYMAw4EwwMBPZDYBgwDBgGDAOGAcOAYcAwYBgwwWAo1DI2xvBUh9p7s/dmGDAMGAYMA4YBw8BowoBpDEw6tB0Cw4BhwDBgGDAMGAYMA4YBw4BpDEaTFGhrtV0Pw4BhwDBgGDAMGAYMA4aBJAyYxsCkQ9shMAwYBgwDhgHDgGHAMGAYMAyYxiBJYrL7Jk0bBgwDhgHDgGHAMGAYMAyMJgz8l9raWmeH0cAwYBgwDBgGDAOGAcOAYcAwMLoxYIKBCUYmGBoGDAOGAcOAYcAwYBgwDBgGnAkGBgL7ITAMGAYMA4YBw4BhwDBgGDAMmGBgKrPRrTKz92/v3zBgGDAMGAYMA4YBw0AfBkxjYNKh7RAYBgwDhgHDgGHAMGAYMAwYBkxjYBKi7RIYBgwDhgHDgGHAMGAYMAwYBmpNMDAQ2A+BYcAwYBgwDBgGDAOGAcOAYcAEA1ObmdrMMGAYMAwYBgwDhgHDgGHAMFBrgoGBwH4IDAOGAcOAYcAwYBgwDBgGDAMmGJjazNRmhgHDgGHAMGAYMAwYBgwDhgEwYFGJTEI2CdkwYBgwDBgGDAOGAcOAYcAwYIKBScgmIRsGDAOGAcOAYcAwYBgwDBgGat3/B1uDWUFTCeuUAAAAAElFTkSuQmCC;" vertex="1" parent="1">
          <mxGeometry x="480" y="70" width="254" height="66.94" as="geometry" />
        </mxCell>
        <mxCell id="9insMum_-L4Vv3MbVgxR-14" style="edgeStyle=orthogonalEdgeStyle;rounded=0;orthogonalLoop=1;jettySize=auto;html=1;exitX=0.5;exitY=1;exitDx=0;exitDy=0;" edge="1" parent="1" source="9insMum_-L4Vv3MbVgxR-8" target="9insMum_-L4Vv3MbVgxR-12">
          <mxGeometry relative="1" as="geometry" />
        </mxCell>
        <mxCell id="9insMum_-L4Vv3MbVgxR-20" style="edgeStyle=orthogonalEdgeStyle;rounded=0;orthogonalLoop=1;jettySize=auto;html=1;exitX=0.5;exitY=1;exitDx=0;exitDy=0;entryX=0.5;entryY=0;entryDx=0;entryDy=0;" edge="1" parent="1" source="9insMum_-L4Vv3MbVgxR-8" target="9insMum_-L4Vv3MbVgxR-15">
          <mxGeometry relative="1" as="geometry">
            <Array as="points">
              <mxPoint x="215" y="280" />
              <mxPoint x="110" y="280" />
              <mxPoint x="110" y="390" />
              <mxPoint x="215" y="390" />
            </Array>
          </mxGeometry>
        </mxCell>
        <mxCell id="9insMum_-L4Vv3MbVgxR-8" value="updateConfigWithFlags" style="rounded=0;whiteSpace=wrap;html=1;" vertex="1" parent="1">
          <mxGeometry x="135" y="190" width="160" height="60" as="geometry" />
        </mxCell>
        <mxCell id="9insMum_-L4Vv3MbVgxR-11" value="pflag 是 flag 的加强版：https://www.cnblogs.com/sparkdev/p/10833186.html" style="text;html=1;strokeColor=none;fillColor=none;align=center;verticalAlign=middle;whiteSpace=wrap;rounded=0;" vertex="1" parent="1">
          <mxGeometry x="340" y="210" width="270" height="20" as="geometry" />
        </mxCell>
        <mxCell id="9insMum_-L4Vv3MbVgxR-16" style="edgeStyle=orthogonalEdgeStyle;rounded=0;orthogonalLoop=1;jettySize=auto;html=1;exitX=0.5;exitY=1;exitDx=0;exitDy=0;" edge="1" parent="1" source="9insMum_-L4Vv3MbVgxR-12" target="9insMum_-L4Vv3MbVgxR-15">
          <mxGeometry relative="1" as="geometry" />
        </mxCell>
        <mxCell id="9insMum_-L4Vv3MbVgxR-12" value="&lt;b&gt;if&lt;/b&gt; cfg.showVersion&lt;br&gt;打印版本" style="rounded=0;whiteSpace=wrap;html=1;" vertex="1" parent="1">
          <mxGeometry x="135" y="300" width="160" height="60" as="geometry" />
        </mxCell>
        <mxCell id="9insMum_-L4Vv3MbVgxR-13" value="go generate:&amp;nbsp; https://www.jianshu.com/p/a866147021da&amp;nbsp;&lt;span style=&quot;color: rgba(0 , 0 , 0 , 0) ; font-family: monospace ; font-size: 0px&quot;&gt;%3CmxGraphModel%3E%3Croot%3E%3CmxCell%20id%3D%220%22%2F%3E%3CmxCell%20id%3D%221%22%20parent%3D%220%22%2F%3E%3CmxCell%20id%3D%222%22%20value%3D%22pflag%20%E6%98%AF%20flag%20%E7%9A%84%E5%8A%A0%E5%BC%BA%E7%89%88%EF%BC%9Ahttps%3A%2F%2Fwww.cnblogs.com%2Fsparkdev%2Fp%2F10833186.html%22%20style%3D%22text%3Bhtml%3D1%3BstrokeColor%3Dnone%3BfillColor%3Dnone%3Balign%3Dcenter%3BverticalAlign%3Dmiddle%3BwhiteSpace%3Dwrap%3Brounded%3D0%3B%22%20vertex%3D%221%22%20parent%3D%221%22%3E%3CmxGeometry%20x%3D%22340%22%20y%3D%22210%22%20width%3D%22270%22%20height%3D%2220%22%20as%3D%22geometry%22%2F%3E%3C%2FmxCell%3E%3C%2Froot%3E%3C%2FmxGraphModel%3E&lt;/span&gt;&lt;span style=&quot;color: rgba(0 , 0 , 0 , 0) ; font-family: monospace ; font-size: 0px&quot;&gt;%3CmxGraphModel%3E%3Croot%3E%3CmxCell%20id%3D%220%22%2F%3E%3CmxCell%20id%3D%221%22%20parent%3D%220%22%2F%3E%3CmxCell%20id%3D%222%22%20value%3D%22pflag%20%E6%98%AF%20flag%20%E7%9A%84%E5%8A%A0%E5%BC%BA%E7%89%88%EF%BC%9Ahttps%3A%2F%2Fwww.cnblogs.com%2Fsparkdev%2Fp%2F10833186.html%22%20style%3D%22text%3Bhtml%3D1%3BstrokeColor%3Dnone%3BfillColor%3Dnone%3Balign%3Dcenter%3BverticalAlign%3Dmiddle%3BwhiteSpace%3Dwrap%3Brounded%3D0%3B%22%20vertex%3D%221%22%20parent%3D%221%22%3E%3CmxGeometry%20x%3D%22340%22%20y%3D%22210%22%20width%3D%22270%22%20height%3D%2220%22%20as%3D%22geometry%22%2F%3E%3C%2FmxCell%3E%3C%2Froot%3E%3C%2FmxGraphModel%3E&lt;/span&gt;&lt;font color=&quot;rgba(0, 0, 0, 0)&quot; face=&quot;monospace&quot;&gt;&lt;span style=&quot;font-size: 0px&quot;&gt;https://www.jianshu.com/p/a866147021da&lt;/span&gt;&lt;/font&gt;" style="text;html=1;strokeColor=none;fillColor=none;align=center;verticalAlign=middle;whiteSpace=wrap;rounded=0;" vertex="1" parent="1">
          <mxGeometry x="340" y="310" width="200" height="40" as="geometry" />
        </mxCell>
        <mxCell id="9insMum_-L4Vv3MbVgxR-23" style="edgeStyle=orthogonalEdgeStyle;rounded=0;orthogonalLoop=1;jettySize=auto;html=1;exitX=0.5;exitY=1;exitDx=0;exitDy=0;" edge="1" parent="1" source="9insMum_-L4Vv3MbVgxR-15" target="9insMum_-L4Vv3MbVgxR-19">
          <mxGeometry relative="1" as="geometry" />
        </mxCell>
        <mxCell id="9insMum_-L4Vv3MbVgxR-15" value="setup clog&lt;br&gt;&lt;br&gt;config.InitSmqLog()" style="rounded=0;whiteSpace=wrap;html=1;" vertex="1" parent="1">
          <mxGeometry x="155" y="420" width="120" height="60" as="geometry" />
        </mxCell>
        <mxCell id="9insMum_-L4Vv3MbVgxR-18" value="&lt;font color=&quot;#003300&quot; style=&quot;font-size: 14px&quot;&gt;设置环境&lt;/font&gt;" style="text;html=1;strokeColor=none;fillColor=none;align=center;verticalAlign=middle;whiteSpace=wrap;rounded=0;shadow=0;glass=0;sketch=1;" vertex="1" parent="1">
          <mxGeometry x="670" y="460" width="110" height="30" as="geometry" />
        </mxCell>
        <mxCell id="9insMum_-L4Vv3MbVgxR-22" style="edgeStyle=orthogonalEdgeStyle;rounded=0;orthogonalLoop=1;jettySize=auto;html=1;exitX=0.5;exitY=1;exitDx=0;exitDy=0;entryX=0.5;entryY=0;entryDx=0;entryDy=0;" edge="1" parent="1" source="9insMum_-L4Vv3MbVgxR-19" target="9insMum_-L4Vv3MbVgxR-21">
          <mxGeometry relative="1" as="geometry" />
        </mxCell>
        <mxCell id="9insMum_-L4Vv3MbVgxR-19" value="设置spex Agent&lt;br&gt;设置spex Provider" style="rounded=0;whiteSpace=wrap;html=1;shadow=0;glass=0;sketch=1;gradientColor=none;gradientDirection=north;" vertex="1" parent="1">
          <mxGeometry x="155" y="554" width="120" height="60" as="geometry" />
        </mxCell>
        <mxCell id="9insMum_-L4Vv3MbVgxR-27" style="edgeStyle=orthogonalEdgeStyle;rounded=0;orthogonalLoop=1;jettySize=auto;html=1;exitX=0.5;exitY=1;exitDx=0;exitDy=0;fontColor=#000000;" edge="1" parent="1" source="9insMum_-L4Vv3MbVgxR-21" target="9insMum_-L4Vv3MbVgxR-26">
          <mxGeometry relative="1" as="geometry" />
        </mxCell>
        <mxCell id="9insMum_-L4Vv3MbVgxR-21" value="InitWatch() 设置全局config&lt;br&gt;&lt;br&gt;defer stopWatchingConfig()" style="rounded=0;whiteSpace=wrap;html=1;shadow=0;glass=0;sketch=1;gradientColor=none;gradientDirection=north;" vertex="1" parent="1">
          <mxGeometry x="121.25" y="650" width="187.5" height="90" as="geometry" />
        </mxCell>
        <mxCell id="9insMum_-L4Vv3MbVgxR-25" value="&lt;font style=&quot;font-size: 14px&quot; color=&quot;#663300&quot;&gt;server启动&lt;/font&gt;" style="text;html=1;strokeColor=none;fillColor=none;align=center;verticalAlign=middle;whiteSpace=wrap;rounded=0;shadow=0;glass=0;sketch=1;" vertex="1" parent="1">
          <mxGeometry x="670" y="550" width="110" height="30" as="geometry" />
        </mxCell>
        <mxCell id="9insMum_-L4Vv3MbVgxR-26" value="初始化 kafka 生产者" style="rounded=0;whiteSpace=wrap;html=1;shadow=0;glass=0;sketch=1;fontColor=#000000;strokeWidth=1;fillColor=#ffffff;gradientColor=none;gradientDirection=north;" vertex="1" parent="1">
          <mxGeometry x="155" y="790" width="120" height="60" as="geometry" />
        </mxCell>
      </root>
    </mxGraphModel>
  </diagram>
</mxfile>
